<svg width="340" height="464" viewBox="0 0 340 464" fill="none" xmlns="http://www.w3.org/2000/svg">
<g opacity="0.1" filter="url(#filter0_d_0_1)">
<circle cx="117.5" cy="169.5" r="218.5" fill="#F8B64C"/>
</g>
<g filter="url(#filter1_d_0_1)">
<path fill-rule="evenodd" clip-rule="evenodd" d="M282.704 375.434C283.708 376.964 284.713 378.495 285.768 379.99C285.923 380.209 286.081 380.43 286.241 380.653C287.735 382.738 289.335 384.972 289.311 387.623C289.3 388.927 289.11 390.368 287.853 391.069C287.825 390.561 287.097 391.063 286.853 391.232C286.839 391.242 286.826 391.251 286.815 391.258C286.379 391.555 286.292 391.68 286.183 391.704C286.082 391.727 285.962 391.663 285.527 391.567C284.978 391.445 284.459 391.431 283.955 391.416C283.106 391.392 282.296 391.369 281.444 390.846C280.619 390.34 279.798 389.829 278.977 389.318C276.928 388.044 274.881 386.771 272.786 385.564C266.444 381.912 260.165 378.172 254.282 373.807C251.02 371.387 247.67 369.047 244.313 366.703C237.084 361.654 229.826 356.585 223.371 350.657C213.926 341.984 204.014 333.378 192.807 327.035C192.638 326.94 192.4 326.834 192.134 326.715C191.209 326.305 189.947 325.744 190.1 324.957C190.23 324.295 191.339 323.434 192.176 322.784C192.462 322.561 192.717 322.364 192.89 322.207C193.725 321.45 194.572 320.708 195.42 319.966C196.964 318.613 198.508 317.26 199.976 315.822C204.174 311.71 208.34 307.172 211.707 302.347C213.181 300.235 214.005 297.91 214.852 295.521C214.947 295.255 215.041 294.988 215.137 294.72C215.981 292.364 216.761 289.464 215.391 287.134C214.757 286.054 213.882 285.617 212.657 285.698C212.495 285.709 212.36 285.724 212.246 285.736C211.647 285.8 211.625 285.802 211.287 284.899C211.234 284.756 211.182 284.611 211.13 284.465C210.756 283.421 210.36 282.316 209.343 281.729C208.242 281.093 207.463 281.66 206.592 282.293C206.512 282.352 206.431 282.411 206.349 282.469C206.166 282.205 205.976 281.91 205.777 281.599C204.757 280.009 203.487 278.03 201.598 277.9C199.255 277.739 197.919 280.616 197.103 282.37L197.088 282.402C194.682 287.581 191.55 292.418 188.182 297.03C184.532 302.029 180.799 307.114 176.777 311.821C176.594 312.036 176.405 312.273 176.209 312.517C175.498 313.406 174.7 314.403 173.759 314.877C172.528 315.497 171.507 314.914 170.467 314.201C169.896 313.809 169.329 313.416 168.763 313.022C166.896 311.725 165.036 310.434 163.078 309.252C160.913 307.946 158.702 306.724 156.49 305.502C155.813 305.128 155.136 304.754 154.46 304.377C153.955 304.096 153.461 303.792 152.966 303.488C152.214 303.025 151.461 302.563 150.67 302.178C149.972 301.84 149.239 301.599 148.506 301.357C147.955 301.176 147.404 300.995 146.868 300.772C151.168 299.49 155.682 300.982 159.807 302.344C160.087 302.437 160.365 302.528 160.641 302.619C162.897 303.357 165.255 304.126 167.663 303.927C169.746 303.756 171.636 302.641 173.283 301.423C176.261 299.221 176.495 295.914 175.524 292.572C174.867 290.309 174.005 288.098 173.144 285.888C172.541 284.341 171.938 282.794 171.406 281.23C170.819 279.504 170.414 277.671 171.751 276.18C172.948 274.846 174.496 274.682 176.128 275.207C176.291 275.259 176.452 275.311 176.613 275.363C180.377 276.577 183.773 277.672 187.844 277.556C191.162 277.461 195.382 276.52 197.618 273.823C198.843 272.345 198.889 270.313 198.894 268.48C198.901 266.307 198.763 264.122 198.459 261.971C198.343 261.145 198.186 260.319 198.029 259.494C197.458 256.484 196.889 253.488 198.274 250.564C198.688 249.69 199.84 247.654 200.981 247.532C202.212 247.401 202.501 248.876 202.683 249.802C202.705 249.914 202.726 250.018 202.746 250.11C202.934 249.991 203.115 249.955 203.276 249.922C203.569 249.863 203.794 249.818 203.872 249.311C205.049 250.545 206.062 251.905 207.076 253.267C207.511 253.852 207.947 254.437 208.396 255.013C209.035 255.832 209.834 256.577 210.634 257.322C211.628 258.247 212.622 259.173 213.309 260.244C214.008 261.334 213.476 262.798 212.977 264.172C212.726 264.866 212.483 265.536 212.411 266.123C212.168 268.094 212.683 270.349 214.029 271.852C214.659 272.554 215.429 273.043 216.359 273.231C216.854 273.332 217.337 273.223 217.803 273.118C218.208 273.027 218.601 272.938 218.98 272.992C219.554 273.073 219.662 273.407 219.825 273.912C219.854 274.002 219.886 274.098 219.921 274.199C220.245 275.11 220.657 275.97 221.42 276.61C221.739 276.877 222.067 277.074 222.387 277.265C222.922 277.585 223.433 277.891 223.84 278.491C223.981 278.699 224.107 278.905 224.229 279.106C224.602 279.717 224.948 280.285 225.611 280.723C225.914 280.923 226.264 281.087 226.614 281.251C227.624 281.725 228.639 282.201 228.545 283.547L229.151 283.065C229.619 284.571 230.264 286.029 230.953 287.444C231.275 288.108 231.441 288.46 231.424 289.198C231.421 289.357 231.39 289.504 231.36 289.645C231.298 289.936 231.241 290.207 231.435 290.523C231.685 290.932 232.164 291.089 232.639 291.245C233.038 291.375 233.435 291.505 233.692 291.783C233.969 292.084 233.975 292.436 233.98 292.782C233.985 293.154 233.991 293.517 234.337 293.799C234.056 293.886 233.277 294.515 233.57 294.897C233.824 295.228 233.937 295.085 234.05 294.94C234.125 294.844 234.201 294.748 234.318 294.784C234.683 294.896 234.81 295.193 234.932 295.48C235.036 295.725 235.137 295.961 235.381 296.067C235.491 296.115 235.481 295.595 235.476 295.472C237.065 298.605 238.796 301.661 240.527 304.717C242.779 308.694 245.031 312.67 246.968 316.81C253.064 329.841 260.311 342.529 268.325 354.481C268.954 355.419 269.603 356.354 270.253 357.292C271.559 359.174 272.871 361.065 274.038 363C275.145 364.838 276.424 366.544 277.705 368.252C278.456 369.253 279.208 370.255 279.926 371.285C280.878 372.65 281.791 374.042 282.704 375.434ZM235.474 295.469C235.473 295.436 235.474 295.442 235.476 295.472C235.475 295.471 235.475 295.47 235.474 295.469ZM105.764 285.007C105.745 285.246 105.726 285.492 105.807 285.77C105.89 286.054 106.127 286.267 106.362 286.479C106.53 286.63 106.696 286.78 106.805 286.955C107.676 285.671 107.646 282.923 107.114 281.551C106.863 280.902 106.388 280.059 106.012 279.489C105.953 279.401 105.857 279.304 105.763 279.21C105.66 279.107 105.561 279.007 105.521 278.927C105.456 278.798 105.426 278.623 105.396 278.445C105.364 278.257 105.332 278.066 105.257 277.926C104.834 277.14 103.908 276.946 103.095 277.039C103.008 277.049 102.919 277.059 102.83 277.069C102.084 277.15 101.27 277.24 100.604 277.563C100.398 277.664 100.222 277.787 100.053 277.905C99.6609 278.18 99.3102 278.426 98.7098 278.288C98.925 278.659 98.7596 278.93 98.5872 279.214C98.4876 279.378 98.3852 279.546 98.3532 279.74C98.2403 280.417 98.459 281.025 98.9066 281.539C99.7362 282.493 100.932 282.576 102.098 282.658C102.235 282.667 102.371 282.677 102.507 282.688C103.596 282.775 104.936 282.956 105.576 283.976C105.815 284.358 105.789 284.677 105.764 285.007ZM110.751 281.986C111.281 282.895 112.476 285.321 112.384 286.457V289.358C112.287 290.371 110.576 292.102 109.692 292.996C109.592 293.097 109.503 293.187 109.428 293.265C107.588 295.159 105.589 295.401 102.862 295.16C100.551 294.955 97.5591 294.185 95.9954 292.348C94.4943 290.586 94.5155 287.856 94.7377 285.686C95.0477 282.656 96.3771 279.896 98.1484 277.445C99.1859 276.01 102.025 272.668 104.192 273.399C104.512 273.507 104.757 273.793 104.975 274.049C105.015 274.096 105.055 274.142 105.093 274.186C105.27 274.415 105.445 274.646 105.62 274.878C105.728 275.182 105.922 275.272 106.202 275.148C106.456 275.5 106.745 275.823 107.034 276.145C107.608 276.788 108.181 277.427 108.472 278.288C108.748 279.106 109.321 279.908 109.878 280.687C110.193 281.128 110.503 281.561 110.751 281.986Z" fill="#EEA734"/>
<path fill-rule="evenodd" clip-rule="evenodd" d="M206.879 449.074C208.456 448.457 210.4 448.745 212.054 448.775C214.13 448.812 216.211 448.97 218.281 449.131C222.256 449.443 226.21 449.312 230.189 449.683C232.164 449.868 234.14 450.038 236.117 450.206C237.847 450.354 239.857 450.813 241.585 450.482C242.298 450.346 244.223 449.675 243.866 448.63C243.591 447.824 241.424 447.327 240.718 447.098C239.057 446.558 237.342 446.171 235.663 445.69C234.801 445.443 233.942 445.177 233.034 445.263C232.263 445.336 231.451 445.911 230.67 445.844C229.516 445.747 228.921 444.297 228.074 443.657C226.725 442.639 225.726 443.183 224.692 444.305C223.927 445.135 223.199 446.391 221.945 446.465C220.349 446.559 220.039 445.191 220.743 444.031C221.391 442.963 223.157 441.867 223.252 440.535C223.312 439.693 221.965 437.44 221.19 437.12C219.887 436.581 218.045 438.007 216.866 438.445C214.808 439.209 212.708 439.886 210.624 440.576C209.199 441.048 207.084 441.09 206.815 442.76C206.478 444.851 206.888 446.974 206.879 449.074ZM125.316 416.93C125.731 416.012 126.166 415.49 125.338 414.639C124.875 414.162 124.221 413.928 123.765 413.433C123.08 412.691 122.007 410.66 123.475 410.149C124.879 409.66 126.061 411.613 127.191 412.043C128.624 412.587 129.512 411.674 129.717 410.304C129.981 408.544 129.691 406.705 129.901 404.923C130.107 403.176 130.717 401.726 131.185 400.054C131.503 398.92 131.891 397.778 130.451 397.526C129.13 397.296 127.598 397.844 126.259 397.918C124.171 398.032 122.057 398.138 119.986 398.451C117.673 398.801 117.715 401.166 117.135 403.099C115.727 407.786 113.84 412.384 112.96 417.216C112.582 419.299 113.586 420.726 114.755 422.364C116.219 424.415 117.742 426.461 119.4 428.361C120.508 429.63 121.755 430.812 123.367 431.395C125.194 432.056 125.891 431.322 125.47 429.522C124.914 427.146 124.075 424.85 124.173 422.375C124.21 421.474 124.472 420.506 123.822 419.751C123.371 419.228 122.599 419.052 122.011 418.734C121.041 418.209 119.539 416.519 121.428 416.155C122.711 415.908 124.075 416.771 125.316 416.93ZM168.942 323.846C170.095 325.133 171.348 326.365 172.441 327.702C173.067 328.469 173.511 329.39 174.184 330.117C175.657 331.709 177.124 329.945 178.428 328.914C183.558 324.859 188.385 320.464 193.272 316.124C195.601 314.056 198.078 312.148 200.369 310.041C202.691 307.906 204.623 305.408 206.798 303.133C207.842 302.041 209.093 300.957 209.737 299.562C210.287 298.372 210.409 297.078 211.036 295.902C212.121 293.864 214.111 291.499 213.655 289.035C212.311 290.444 210.073 295.492 207.728 293.125C206.054 291.435 207.764 288.937 207.689 286.967C206.1 287.641 206.513 290.375 204.819 290.859C203.903 291.121 203.119 290.291 202.692 289.564C201.953 288.307 202.224 286.991 202.56 285.657C202.788 284.748 204.248 281.75 202.804 281.381C201.554 281.06 200.505 283.36 200.091 284.175C199.331 285.67 198.743 287.215 197.909 288.678C196.471 291.199 194.814 293.608 193.234 296.042C189.981 301.056 186.271 305.761 182.455 310.357C178.379 315.265 173.967 319.893 168.942 323.846ZM205.08 339.792C204.916 344.209 201.121 347.558 197.838 350.013C193.642 353.152 189.771 356.718 184.767 358.504C182.84 359.192 180.434 358.994 179.662 361.162C179.361 362.01 179.635 362.322 179.962 363.175C180.473 364.51 180.78 365.958 181.023 367.363C181.849 372.144 181.046 377.013 178.173 380.994C176.646 383.11 174.695 384.909 172.677 386.549C170.664 388.185 168.761 390.093 166.542 391.447C161.81 394.333 156.552 395.991 151.096 396.788C148.258 397.204 145.408 397.573 142.542 397.72C141.055 397.796 139.566 397.81 138.079 397.744C137.414 397.715 134.943 397.154 134.463 397.534C134.094 397.828 133.929 399.602 133.855 400.092C133.698 401.127 133.574 402.148 133.361 403.174C132.931 405.234 132.353 407.564 132.985 409.643C133.169 410.244 133.317 410.733 133.874 410.935C134.226 411.063 134.852 410.838 135.208 410.801C136.015 410.718 136.777 410.686 137.588 410.772C140.251 411.054 142.867 411.734 145.558 411.549C151.296 411.154 157.04 410.75 162.726 409.852C165.491 409.415 168.145 408.589 170.864 407.951C173.457 407.342 176.047 406.728 178.467 405.585C183.207 403.346 187.588 400.384 191.501 396.914C195.679 393.209 198.444 388.818 201.058 383.918C203.354 379.613 205.289 375.256 205.189 370.294C205.125 367.154 204.675 363.263 206.491 360.493C207.32 359.228 208.993 358.055 210.552 358.724C213.381 359.939 210.708 362.343 209.63 363.66C208.075 365.558 208.284 368.448 208.123 370.769C207.932 373.507 207.317 375.91 206.717 378.558C206.13 381.15 207.314 384.225 207.431 386.87C207.558 389.737 207.475 392.607 207.443 395.476C207.379 401.182 207.644 406.872 207.625 412.576C207.614 415.535 207.69 418.508 207.503 421.463C207.332 424.157 206.78 426.734 206.297 429.379C205.823 431.976 205.132 435.085 205.292 437.724C211.775 435.256 218.085 432.342 224.667 430.137C222.614 428.347 222.523 425.817 222.357 423.293C222.139 419.964 221.591 416.663 221.352 413.334C220.879 406.758 221.012 399.842 221.571 393.274C222.172 386.223 223.237 379.195 223.456 372.115C223.562 368.704 223.298 365.284 222.742 361.918C222.274 359.082 221.868 355.514 220.389 353.001C218.976 350.6 216.378 349.075 214.211 347.44C211.041 345.049 208.105 342.36 205.08 339.792ZM205.473 247.567C206.284 248.664 207.201 249.677 208.172 250.636C209.173 251.625 209.6 251.406 210.798 250.892C213.18 249.868 213.134 248.684 211.804 246.632C208.72 241.871 207.55 236.201 204.286 231.537C201.07 226.942 196.393 223.23 191.482 220.58C186.212 217.737 180.502 216.832 174.562 216.917C171.526 216.961 168.472 217.17 165.455 217.51C162.521 217.841 159.911 218.804 157.07 219.531C155.64 219.897 154.166 220.2 152.775 220.703C151.556 221.144 150.459 221.825 149.227 222.237C146.529 223.139 143.814 224.146 141.38 225.62C139 227.062 136.857 228.599 134.695 230.369C132.457 232.202 130.513 234.332 128.092 235.941C125.889 237.407 124.136 239.381 122.138 241.098C120.051 242.892 118.125 245.09 116.559 247.357C115.028 249.574 114.445 252.443 113.52 254.942C112.443 257.852 111.375 260.963 110.969 264.048C110.214 269.796 111.91 276.515 114.067 281.835C116.201 287.097 119.659 291.487 123.785 295.34C125.796 297.219 127.991 298.924 130.45 300.18C132.554 301.255 135.297 303.187 137.586 301.837C138.514 301.29 139.266 300.654 140.338 300.408C141.509 300.139 142.657 300.249 143.603 299.39C144.406 298.66 144.791 297.779 145.846 297.339C147.097 296.816 148.577 296.721 149.917 296.725C152.926 296.735 155.936 297.488 158.808 298.323C161.439 299.088 163.641 300.243 166.437 299.543C168.515 299.024 171.846 297.642 172.294 295.261C172.695 293.132 171.15 290.38 170.372 288.476C169.297 285.843 168.323 283.254 167.648 280.487C167.113 278.294 166.272 274.786 167.783 272.781C169.268 270.812 172.7 270.836 174.833 271.331C176.23 271.656 177.515 272.309 178.913 272.639C180.338 272.975 181.812 273.143 183.265 273.308C188.3 273.877 195.464 272.59 195.196 266.155C194.958 260.42 191.797 254.671 193.648 248.929C194.402 246.589 195.943 243.882 198.509 243.264C200.543 242.774 203.294 243.288 205.089 244.352C206.53 245.206 207.957 246.996 205.473 247.567ZM104.35 273.183C99.2744 274.173 95.9174 279.524 94.9871 284.268C94.5654 286.418 94.4167 288.978 95.232 291.059C96.1716 293.457 98.8279 294.458 101.172 294.961C103.851 295.536 106.225 295.311 108.349 293.454C109.283 292.637 110.074 291.685 110.745 290.646C111.431 289.582 112.385 288.808 111.696 287.619C109.985 284.675 108.526 281.783 107.4 278.544C106.897 277.099 106.45 275.686 106.117 274.198C105.852 273.016 105.724 272.294 104.35 273.183ZM148.806 305.3C147.824 306.246 146.696 306.999 145.428 307.508C144.037 308.066 143.615 307.798 143.684 309.406C143.76 311.183 143.773 312.604 142.963 314.257C142.585 315.031 141.185 316.075 141.449 316.945C141.828 318.195 145.717 319.458 146.851 319.895C149.565 320.94 152.731 320.961 155.292 319.484C158.268 317.769 158.531 314.658 157.41 311.648C157.291 311.327 156.856 310.785 156.963 310.434C157.159 309.791 157.967 309.884 158.431 310.129C159.439 310.662 159.859 312.283 160.076 313.294C160.655 315.996 159.591 318.922 157.569 320.784C156.542 321.729 155.256 322.361 153.946 322.817C153.202 323.076 152.421 323.28 151.635 323.359C151 323.423 150.199 323.223 149.592 323.404C148.524 323.722 148.476 325.04 148.209 326.003C147.732 327.725 147.532 329.589 147.47 331.371C147.368 334.252 147.711 337.923 149.369 340.365C153.236 346.065 160.715 348.043 166.554 350.976C169.658 352.535 172.536 354.493 175.299 356.587C175.572 356.794 175.981 357.2 176.309 357.361C177.416 357.906 176.449 357.707 177.158 357.347C177.704 357.07 178.171 356.468 178.736 356.154C180.035 355.431 181.494 355.04 182.816 354.357C185.889 352.768 188.607 350.796 191.335 348.691C194.129 346.534 196.96 344.565 199.509 342.11C200.584 341.075 201.794 340.222 202.885 339.231C203.983 338.233 202.578 337.819 201.647 337.085C198.482 334.584 195.355 332.005 191.975 329.795C190.847 329.058 189.852 328.063 188.676 327.412C187.447 326.731 186.718 327.341 185.75 328.206C184.692 329.152 183.684 330.079 182.507 330.888C180.952 331.957 179.145 332.471 177.581 333.489C178.585 334.54 181.032 334.891 181.387 336.482C181.747 338.095 179.345 339.353 178.223 339.976C176.241 341.076 174.055 341.743 171.847 342.22C170.009 342.617 167.285 342.02 165.813 343.407C165.393 342.518 164.999 342.055 165.69 341.205C166.38 340.357 167.611 340.211 168.585 339.885C171.215 339.003 173.807 337.829 176.352 336.728C176.014 335.937 175.17 335.396 174.526 334.882C173.607 334.146 172.835 333.332 172.087 332.418C170.66 330.674 169.38 328.814 168.02 327.019C167.431 326.24 166.893 325.462 165.817 325.894C164.866 326.274 163.939 327.261 163.026 327.772C160.96 328.929 159.153 330.038 156.88 330.774C155.964 331.07 152.213 331.915 153.21 329.622C153.506 328.942 154.494 328.662 155.103 328.365C156.228 327.815 157.35 327.255 158.433 326.627C160.66 325.339 162.623 323.674 164.707 322.175C167.004 320.521 169.342 318.916 171.499 317.079C169.352 315.657 166.971 314.615 164.751 313.315C162.507 312 160.247 310.812 157.926 309.644C156.078 308.714 154.2 307.723 152.515 306.521C151.845 306.043 149.541 304.057 148.806 305.3ZM216.306 259.051C216.024 259.122 215.744 259.202 215.467 259.292C217.349 262.17 215.271 265.732 215.86 268.845C217.598 267.818 217.825 263.821 220.463 264.56C223.305 265.356 221.891 268.853 222.751 270.853C224.094 269.68 225.661 270.777 226.215 272.169C226.815 273.678 225.983 275.071 226.263 276.564C226.552 278.108 227.416 277.095 227.894 276.184C228.504 275.022 229.037 273.452 228.812 272.123C228.539 270.508 227.454 269.005 226.782 267.538C226.114 266.079 225.482 264.591 224.515 263.297C222.685 260.848 219.506 258.647 216.306 259.051ZM234.506 293.555C233.277 290.489 231.459 287.68 230.297 284.59C229.958 283.686 229.768 282.245 228.869 281.688C228.279 281.322 227.493 281.542 226.842 281.345C226.193 281.149 225.509 280.682 225.043 280.199C224.192 279.317 223.916 278.106 222.911 277.338C221.615 276.347 220.614 275.966 219.997 274.31C219.513 273.008 219.512 272.818 218.057 273.108C216.468 273.425 215.178 273.037 214.082 271.796C212.226 269.695 212.021 266.735 212.932 264.198C213.357 263.012 214.099 261.632 213.483 260.391C212.911 259.237 211.522 258.409 210.642 257.489C208.418 255.165 206.677 252.446 204.591 250.007C204.092 249.424 203.581 248.842 203.197 248.173C202.952 247.748 202.808 247.017 202.241 246.897C201.266 246.69 199.905 248.376 199.415 248.99C195.824 253.485 198.393 259.605 198.83 264.672C199.053 267.252 199.553 270.345 198.409 272.774C197.331 275.064 194.602 276.206 192.302 276.844C189.2 277.703 185.869 277.665 182.712 277.143C181.059 276.87 179.472 276.403 177.907 275.812C176.306 275.207 174.641 274.166 173.009 275.264C170.902 276.682 171.553 279.526 172.016 281.599C172.771 284.985 174.091 288.144 175.258 291.397C176.239 294.129 177.033 297.557 174.972 300.002C172.913 302.443 169.499 303.972 166.321 303.845C159.733 303.582 153.72 298.67 146.987 300.679C148.252 301.202 149.589 301.51 150.825 302.108C152.317 302.831 153.698 303.791 155.147 304.595C157.927 306.137 160.717 307.657 163.434 309.31C165.89 310.802 168.211 312.438 170.554 314.092C173.474 316.154 175.012 313.871 176.885 311.644C180.974 306.783 184.867 301.635 188.582 296.484C191.813 292.006 194.811 287.33 197.147 282.327C197.983 280.537 199.39 277.5 201.836 277.854C204.007 278.167 205.273 280.787 206.396 282.39C207.179 281.829 207.851 281.079 208.908 281.387C209.785 281.643 210.392 282.543 210.78 283.311C211.047 283.838 211.228 285.616 211.675 285.884C211.992 286.074 213.206 285.665 213.746 285.79C215.598 286.218 216.189 288.597 216.17 290.248C216.144 292.525 215.193 294.802 214.414 296.91C212.667 301.635 209.674 305.327 206.375 309.061C203.026 312.85 199.521 316.284 195.744 319.646C194.812 320.476 193.889 321.315 192.98 322.171C192.235 322.872 191.055 323.601 190.472 324.425C189.393 325.95 192.28 326.642 193.354 327.2C197.977 329.6 202.237 332.762 206.308 335.985C210.507 339.31 214.728 342.647 218.762 346.17C222.709 349.616 226.436 353.289 230.592 356.494C234.862 359.786 239.335 362.826 243.723 365.959C248.114 369.094 252.388 372.394 256.774 375.534C261.061 378.602 265.663 381.233 270.172 383.957C272.53 385.382 274.901 386.787 277.271 388.194C279.187 389.332 281.267 391.1 283.539 391.244C285.585 391.373 287.527 392.126 288.75 389.901C289.679 388.212 289.294 385.888 288.481 384.246C287.489 382.243 285.936 380.402 284.689 378.548C283.254 376.416 281.923 374.223 280.508 372.081C279.15 370.026 277.642 368.13 276.127 366.194C274.592 364.231 273.427 362.019 272.059 359.941C269.134 355.498 266.127 351.135 263.355 346.593C256.996 336.176 251.301 325.421 245.859 314.505C245.38 313.544 234.193 293.726 234.506 293.555ZM225.553 357.603C228.97 369.415 226.999 381.427 226.299 393.444C225.944 399.52 225.89 405.634 225.733 411.719C225.657 414.676 225.662 417.636 225.785 420.593C225.847 422.08 225.956 423.562 226.061 425.046C226.155 426.359 225.803 427.81 225.968 429.077C226.181 430.699 229.401 431.017 228.412 433.099C227.748 434.496 225.423 434.709 224.178 435.298C224.732 435.939 225.598 436.899 226.521 436.959C227.353 437.013 227.996 436.292 228.741 436.019C229.403 435.777 230.314 435.542 230.732 436.315C231.17 437.124 230.253 438.023 229.891 438.65C231.123 438.889 231.976 438.153 233.088 438.22C234.258 438.291 234.311 439.443 235.08 440.109C235.959 440.87 237.494 441.034 238.578 441.355C239.839 441.727 241.106 442.19 242.254 442.837C244.307 443.993 246.071 446.179 246.83 448.415C247.616 450.734 246.388 452.74 244.559 454.162C243.878 454.692 242.901 455.308 241.997 455.022C240.964 454.695 240.803 453.855 239.544 453.917C238.414 453.974 237.341 454.425 236.205 454.483C234.534 454.568 232.866 454.264 231.194 454.328C224.446 454.587 217.698 454.645 210.962 453.996C209.219 453.828 207.511 453.691 205.793 453.636C204.457 453.593 204.345 452.597 204.118 451.346C203.572 448.325 204.781 445.351 204.182 442.415C204.222 442.609 203.276 442.105 203.162 442.009C202.468 441.425 202.236 440.594 202.029 439.731C201.478 437.434 201.484 435.093 201.654 432.749C202.041 427.431 203.031 422.161 202.95 416.815C202.909 414.12 202.99 411.431 202.991 408.737C202.992 406.263 203.216 403.82 203.237 401.363C203.282 395.975 203.85 390.648 204.008 385.266C202.886 386.357 202.291 387.878 201.579 389.239C200.703 390.913 199.726 392.57 198.655 394.127C196.446 397.344 193.482 399.962 190.41 402.335C184.55 406.864 178.183 410.371 171.002 412.292C163.229 414.371 155.368 415.775 147.355 416.563C145.5 416.746 143.626 416.845 141.768 416.664C140.551 416.546 138.573 415.563 137.417 416.062C136.103 416.629 135.838 417.992 134.115 417.61C133.458 417.464 132.982 417.025 132.406 416.728C131.559 416.293 131.526 416.594 130.717 416.649C129.816 416.711 129.276 416.261 128.49 416.987C127.823 417.603 127.888 418.035 128.497 418.611C129.353 419.422 130.724 419.558 131.581 420.405C132.415 421.228 132.266 422.24 130.978 422.252C129.681 422.265 128.529 421.342 127.263 421.222C127.533 424.969 128.66 429.156 127.41 432.832C126.83 434.538 125.585 435.637 123.729 435.625C120.624 435.605 117.899 432.748 116.029 430.522C114.995 429.292 114.156 427.91 113.158 426.649C112.137 425.36 111.043 424.065 110.458 422.506C109.837 420.848 110.018 419.184 110.366 417.482C110.796 415.375 111.196 413.246 111.716 411.16C112.724 407.113 114.752 403.419 115.776 399.384C116.163 397.858 116.158 396.067 117.136 394.758C118.171 393.372 119.781 393.283 121.378 393.372C123.354 393.482 125.329 393.7 127.295 393.924C128.537 394.065 131.257 394.96 132.267 394.197C132.615 393.935 132.616 393.246 133.023 393.009C133.415 392.779 134.048 392.944 134.477 392.976C136.599 393.133 138.741 393.325 140.868 393.387C148.773 393.618 157.116 392.386 164.174 388.713C167.45 387.009 169.945 384.326 172.578 381.791C175.167 379.3 177.423 376.618 178.119 373C178.755 369.697 178.514 365.748 177.458 362.551C176.429 359.437 172.778 357.551 170.12 356.015C166.435 353.886 162.522 352.121 158.551 350.592C157.921 350.35 157.155 350.041 156.462 350.165C155.612 350.317 155.041 351.054 154.268 351.379C153.349 351.765 152.221 351.767 151.251 351.993C150.311 352.212 149.394 352.513 148.437 352.657C145.42 353.112 141.181 352.749 138.688 350.822C134.614 347.673 137.076 343.216 138.385 339.383C137.001 339.336 135.848 339.66 134.527 339.068C133.211 338.477 132.182 337.433 131.582 336.124C130.49 333.742 131.121 331.006 131.443 328.523C131.589 327.4 131.755 326.286 132.183 325.231C132.515 324.415 133.06 323.636 133.261 322.772C133.482 321.821 133.195 321.766 132.402 321.311C131.178 320.609 130.298 319.803 129.549 318.572C128.082 316.16 128.046 313.529 129.248 310.992C129.734 309.966 130.895 308.554 130.763 307.355C130.649 306.324 129.482 305.52 128.794 304.845C126.671 302.759 124.414 300.834 122.06 299.014C120.96 298.164 119.748 297.392 118.748 296.426C118.015 295.718 117.271 294.179 116.269 293.806C115.266 293.434 114.598 294.554 113.899 295.154C112.81 296.09 111.766 297.167 110.579 297.978C108.451 299.433 105.811 299.161 103.407 298.696C100.896 298.21 98.5674 297.355 96.4262 295.945C95.5757 295.384 94.5821 294.245 93.5348 294.154C92.4162 294.057 91.2007 295.169 90.4011 295.837C88.3139 297.58 87.6873 300.287 86.4715 302.629C85.1139 305.244 84.5372 307.959 84.9067 310.898C85.239 313.543 86.2577 315.542 87.773 317.678C88.0865 318.12 88.8203 318.955 88.2839 319.443C87.6278 320.041 86.2834 318.842 85.8429 318.455C81.4668 314.606 78.9798 308.807 80.4004 303.002C81.1628 299.885 82.6544 297.001 84.3867 294.319C85.1233 293.178 85.8418 292.037 87.1228 291.455C88.581 290.793 90.2332 290.872 91.7907 290.713C90.7135 285.439 90.3763 279.701 93.6867 275.105C96.227 271.578 101.429 268.492 105.552 271.352C105.383 267.464 104.829 263.772 105.864 259.944C106.328 258.228 106.963 256.559 107.744 254.962C108.508 253.398 109.565 252.071 110.183 250.442C112.621 244.018 117.298 238.28 122.294 233.669C127.344 229.008 132.3 223.322 138.662 220.407C145.298 217.364 152.057 214.63 159.253 213.248C166.722 211.813 174.399 211.518 181.923 212.877C188.519 214.068 194.623 218.072 199.614 222.39C205.309 227.316 208.985 233.255 211.894 240.134C212.532 241.645 213.148 243.169 213.932 244.614C214.801 246.216 215.918 247.706 216.557 249.426C217.128 250.959 217.224 252.623 216.208 253.993C215.494 254.956 214.029 255.174 213.405 256.055C213.09 256.499 213.122 256.922 213.814 257.054C214.53 257.191 214.871 256.393 215.385 256.073C216.665 255.276 218.472 255.955 219.766 256.408C222.835 257.481 225.238 259.408 227.075 262.079C228.832 264.636 230 267.54 231.16 270.399C231.893 272.203 232.589 273.995 232.993 275.906C233.144 276.625 233.356 278.574 232.22 277.72C231.759 277.374 231.101 280.001 231.225 280.419C231.657 281.874 233.198 283.239 234.104 284.417C236.236 287.186 237.664 290.289 239.168 293.421C242.426 300.204 246.053 306.789 249.539 313.454C256.636 327.028 264.392 340.081 272.528 353.055C276.559 359.484 280.715 365.802 285.023 372.047C286.925 374.803 288.832 377.561 290.692 380.345C292.273 382.711 293.833 385.345 293.426 388.298C293.053 391.002 291.447 393.173 288.85 394.057C287.458 394.531 285.806 395.077 284.316 394.932C282.687 394.773 281.25 393.683 279.892 392.865C273.653 389.105 267.412 385.348 261.169 381.595C254.186 377.397 247.8 372.413 241.139 367.746C237.749 365.371 234.253 363.231 230.722 361.081C229.926 360.597 226.318 357.129 225.553 357.603Z" fill="#3A3A3A"/>
<path fill-rule="evenodd" clip-rule="evenodd" d="M165.094 369.553C163.388 372.064 161.595 374.424 159.194 376.329C156.665 378.336 154.02 379.962 151.196 381.52C146.216 384.266 139.541 386.699 133.757 385.454C132.112 385.1 129.48 383.66 130.91 381.605C131.629 380.573 133.171 380.842 134.263 380.899C136.021 380.991 137.559 381.091 139.244 380.499C142.339 379.412 145.456 378.386 148.479 377.106C151.407 375.866 153.975 374.165 156.661 372.495C159.181 370.928 161.103 369.052 163.316 367.158C163.922 366.639 164.964 365.732 165.537 366.74C165.952 367.469 165.321 368.84 165.094 369.553Z" fill="#3A3A3A"/>
<path fill-rule="evenodd" clip-rule="evenodd" d="M234.01 248.941C233.82 250.029 233.304 252.193 231.774 251.897C229.822 251.52 230.783 247.698 230.754 246.401C230.624 240.748 228.781 235.312 226.052 230.411C224.694 227.974 223.023 225.72 221.789 223.214C221.55 222.727 220.823 221.519 221.351 220.991C221.985 220.356 223.201 221.314 223.649 221.767C225.377 223.518 226.753 226.142 228.087 228.203C229.869 230.953 231.442 233.859 232.572 236.943C233.936 240.668 234.702 244.989 234.01 248.941Z" fill="#3A3A3A"/>
<path fill-rule="evenodd" clip-rule="evenodd" d="M237.663 230.863C237.845 231.843 238.737 234.511 237.146 234.747C235.343 235.015 234.782 230.571 234.281 229.393C234.017 228.773 232.61 226.039 233.344 225.444C234.871 224.205 237.301 230.074 237.663 230.863Z" fill="#3A3A3A"/>
<path fill-rule="evenodd" clip-rule="evenodd" d="M152.771 363.147C151.059 364.707 149.071 364.616 146.91 364.467C145.813 364.392 143.271 363.742 145.037 362.381C145.96 361.67 153.198 361.181 152.771 363.147Z" fill="#3A3A3A"/>
<path fill-rule="evenodd" clip-rule="evenodd" d="M286.177 391.709C286.299 391.467 287.326 390.305 287.548 390.775C287.757 391.218 286.449 391.696 286.177 391.709Z" fill="#3A3A3A"/>
<path fill-rule="evenodd" clip-rule="evenodd" d="M150.003 305.474C149.792 305.908 148.913 305.529 148.61 305.595C149.021 304.713 149.511 304.902 150.003 305.474Z" fill="#3A3A3A"/>
<path fill-rule="evenodd" clip-rule="evenodd" d="M216.175 259.365C216.083 259.714 215.992 260.062 215.901 260.41C215.76 260.149 215.619 259.888 215.478 259.627C215.71 259.54 215.943 259.453 216.175 259.365Z" fill="#3A3A3A"/>
<path fill-rule="evenodd" clip-rule="evenodd" d="M217.856 325.166C220.053 325.388 222.258 325.5 224.464 325.568C226.326 325.625 227.091 325.273 227.329 323.337C227.61 321.043 227.707 318.728 227.988 316.432C228.116 315.39 229.128 313.306 227.909 312.748C226.888 312.28 225.296 312.95 224.226 313.029C223.035 313.117 221.237 312.753 220.184 313.46C219.058 314.215 219.303 316.859 219.111 318.1C218.745 320.465 218.304 322.815 217.856 325.166ZM216.808 314.022C214.816 314.173 212.818 314.292 210.832 314.504C209.949 314.598 208.16 315.035 207.415 314.392C205.666 312.883 212.201 312.353 212.943 312.234C214.193 312.034 216.331 312.3 217.132 311.121C217.924 309.954 217.724 307.993 217.929 306.639C218.237 304.601 218.59 302.565 218.795 300.513C218.864 299.824 218.766 297.546 219.494 297.207C221.168 296.429 220.642 304.447 220.614 305.048C220.567 306.083 220.515 307.123 220.371 308.149C220.29 308.727 220.004 309.509 220.18 310.09C220.685 311.756 223.552 310.796 224.858 310.663C226.322 310.514 228.581 311.081 229.066 309.275C229.675 307.005 229.586 304.428 229.812 302.093C229.874 301.448 230.037 296.625 231.227 296.999C232.556 297.417 232.037 301.446 232.025 302.484C232.012 303.655 232.016 304.826 231.937 305.995C231.866 307.045 231.57 308.332 231.789 309.372C232.173 311.196 234.335 310.226 234.963 311.677C235.559 313.056 232.308 311.975 231.701 312.449C230.795 313.156 231.013 316.111 230.883 317.146C230.599 319.419 230.053 321.779 229.876 324.046C229.736 325.835 231.174 325.597 232.637 325.468C233.893 325.357 235.271 325.058 236.529 325.226C237.54 325.36 238.952 326.291 237.481 326.911C235.18 327.88 230.496 325.9 229.34 328.843C229.122 329.399 228.107 335.838 226.832 332.659C226.3 331.33 227.604 329.246 226.213 328.228C225.731 327.875 225.012 327.937 224.452 327.898C223.074 327.802 221.687 327.769 220.307 327.741C218.93 327.712 217.693 327.435 217.161 328.943C216.747 330.118 216.793 331.433 216.462 332.635C216.214 333.537 215.399 335.114 214.553 333.64C213.998 332.671 214.423 330.979 214.533 329.926C214.588 329.399 214.902 328.307 214.502 327.864C214.072 327.389 212.923 327.646 212.38 327.689C210.812 327.814 207.891 328.568 206.69 327.146C205.686 325.956 207.774 325.933 208.595 325.853C209.44 325.77 210.286 325.693 211.131 325.605C212.061 325.506 213.293 325.637 214.169 325.346C215.639 324.856 215.534 322.857 215.631 321.56C215.82 319.027 216.389 316.525 216.808 314.022Z" fill="#3A3A3A"/>
<path fill-rule="evenodd" clip-rule="evenodd" d="M242.643 319.432C242.525 320.895 242.366 322.534 241.894 323.924C241.537 324.975 240.815 325.294 240.569 323.956C240.413 323.108 241.45 318.331 242.643 319.432Z" fill="#3A3A3A"/>
<path fill-rule="evenodd" clip-rule="evenodd" d="M149.804 309.803C149.217 309.382 146.44 307.167 148.447 307.08C149.472 307.035 151.68 308.721 151.744 309.656C151.76 309.892 151.255 310.015 151.282 310.243C151.335 310.678 151.979 310.884 152.186 311.23C152.643 311.992 152.454 313.499 151.863 314.224C150.516 315.878 149.02 313.079 150.063 312.529C149.83 312.652 146.712 311.067 146.595 310.709C145.953 308.747 149.646 310.595 149.804 309.803Z" fill="#3A3A3A"/>
<path fill-rule="evenodd" clip-rule="evenodd" d="M154.699 317.522C153.987 317.545 152.556 317.495 152.022 316.987C151.031 316.041 152.965 315.916 153.531 315.475C154.324 314.859 154.48 312.852 155.726 314.093C156.961 315.325 155.875 316.758 154.699 317.522Z" fill="#3A3A3A"/>
<path fill-rule="evenodd" clip-rule="evenodd" d="M144.43 312.312C145.718 312.123 148.584 314.899 147.193 315.084C146.273 315.206 144.631 313.054 144.43 312.312Z" fill="#3A3A3A"/>
</g>
<defs>
<filter id="filter0_d_0_1" x="-105" y="-49" width="445" height="445" filterUnits="userSpaceOnUse" color-interpolation-filters="sRGB">
<feFlood flood-opacity="0" result="BackgroundImageFix"/>
<feColorMatrix in="SourceAlpha" type="matrix" values="0 0 0 0 0 0 0 0 0 0 0 0 0 0 0 0 0 0 127 0" result="hardAlpha"/>
<feOffset dy="4"/>
<feGaussianBlur stdDeviation="2"/>
<feComposite in2="hardAlpha" operator="out"/>
<feColorMatrix type="matrix" values="0 0 0 0 0 0 0 0 0 0 0 0 0 0 0 0 0 0 0.25 0"/>
<feBlend mode="normal" in2="BackgroundImageFix" result="effect1_dropShadow_0_1"/>
<feBlend mode="normal" in="SourceGraphic" in2="effect1_dropShadow_0_1" result="shape"/>
</filter>
<filter id="filter1_d_0_1" x="76" y="212" width="221.491" height="251.095" filterUnits="userSpaceOnUse" color-interpolation-filters="sRGB">
<feFlood flood-opacity="0" result="BackgroundImageFix"/>
<feColorMatrix in="SourceAlpha" type="matrix" values="0 0 0 0 0 0 0 0 0 0 0 0 0 0 0 0 0 0 127 0" result="hardAlpha"/>
<feOffset dy="4"/>
<feGaussianBlur stdDeviation="2"/>
<feComposite in2="hardAlpha" operator="out"/>
<feColorMatrix type="matrix" values="0 0 0 0 0 0 0 0 0 0 0 0 0 0 0 0 0 0 0.25 0"/>
<feBlend mode="normal" in2="BackgroundImageFix" result="effect1_dropShadow_0_1"/>
<feBlend mode="normal" in="SourceGraphic" in2="effect1_dropShadow_0_1" result="shape"/>
</filter>
</defs>
</svg>
