<svg width="222" height="252" viewBox="0 0 222 252" fill="none" xmlns="http://www.w3.org/2000/svg">
<g filter="url(#filter0_d_58_4363)">
<path fill-rule="evenodd" clip-rule="evenodd" d="M206.704 163.434C207.708 164.964 208.713 166.495 209.768 167.99C209.923 168.209 210.081 168.43 210.241 168.653C211.735 170.738 213.335 172.972 213.311 175.623C213.3 176.927 213.11 178.368 211.853 179.069C211.825 178.561 211.097 179.063 210.853 179.232C210.839 179.242 210.826 179.251 210.815 179.258C210.379 179.555 210.292 179.68 210.183 179.704C210.082 179.727 209.962 179.663 209.527 179.567C208.978 179.445 208.459 179.431 207.955 179.416C207.106 179.392 206.296 179.369 205.444 178.846C204.619 178.34 203.798 177.829 202.977 177.318C200.928 176.044 198.881 174.771 196.786 173.564C190.444 169.912 184.165 166.172 178.282 161.807C175.02 159.387 171.67 157.047 168.313 154.703C161.084 149.654 153.826 144.585 147.371 138.657C137.926 129.984 128.014 121.378 116.807 115.035C116.638 114.94 116.4 114.834 116.134 114.715C115.209 114.305 113.947 113.744 114.1 112.957C114.23 112.295 115.339 111.434 116.176 110.784C116.462 110.561 116.717 110.364 116.89 110.207C117.725 109.45 118.572 108.708 119.42 107.966C120.964 106.613 122.508 105.26 123.976 103.822C128.174 99.71 132.34 95.1716 135.707 90.3466C137.181 88.2347 138.005 85.91 138.852 83.5212C138.947 83.2548 139.041 82.988 139.137 82.7202C139.981 80.3644 140.761 77.4644 139.391 75.1341C138.757 74.0544 137.882 73.6166 136.657 73.6985C136.495 73.7093 136.36 73.7236 136.246 73.7357C135.647 73.7998 135.625 73.8019 135.287 72.8985C135.234 72.7561 135.182 72.6108 135.13 72.4646C134.756 71.4208 134.36 70.3161 133.343 69.7285C132.242 69.0929 131.463 69.6599 130.592 70.2934C130.512 70.3519 130.431 70.4108 130.349 70.4693C130.166 70.2053 129.976 69.9096 129.777 69.599C128.757 68.0091 127.487 66.0295 125.598 65.9C123.255 65.7394 121.919 68.6158 121.103 70.3704L121.088 70.4017C118.682 75.5806 115.55 80.4181 112.182 85.0299C108.532 90.029 104.799 95.1141 100.777 99.8214C100.594 100.036 100.405 100.273 100.209 100.517C99.4977 101.406 98.7002 102.403 97.7592 102.877C96.5284 103.497 95.5069 102.914 94.4666 102.201C93.8961 101.809 93.3291 101.416 92.7632 101.022C90.8961 99.7253 89.0363 98.4335 87.0776 97.2522C84.9131 95.9462 82.7019 94.7244 80.49 93.5023C79.813 93.1283 79.136 92.7539 78.46 92.3774C77.9553 92.0964 77.4608 91.7923 76.9662 91.4879C76.2139 91.0254 75.461 90.5626 74.67 90.1784C73.9725 89.8395 73.2393 89.5985 72.5059 89.3572C71.9553 89.1761 71.4043 88.995 70.8683 88.7721C75.1677 87.4904 79.6821 88.9818 83.8073 90.3442C84.087 90.4368 84.3653 90.5284 84.6411 90.619C86.8965 91.357 89.2554 92.1256 91.6633 91.9271C93.746 91.7557 95.6361 90.6406 97.2834 89.4227C100.261 87.2209 100.495 83.914 99.5239 80.5717C98.867 78.3093 98.005 76.0981 97.1441 73.8883C96.5409 72.3406 95.938 70.7935 95.4062 69.2305C94.819 67.5045 94.4143 65.6715 95.7514 64.1802C96.9477 62.8456 98.4958 62.6816 100.128 63.2068C100.291 63.259 100.452 63.3109 100.613 63.3628C104.377 64.5765 107.773 65.6718 111.844 65.5559C115.162 65.4615 119.382 64.5198 121.618 61.8234C122.843 60.3454 122.889 58.3132 122.894 56.4799C122.901 54.307 122.763 52.1219 122.459 49.971C122.343 49.1452 122.186 48.3188 122.029 47.4937C121.458 44.4843 120.889 41.4881 122.274 38.5637C122.688 37.6898 123.84 35.6542 124.981 35.5323C126.212 35.4006 126.501 36.8759 126.683 37.8016C126.705 37.9138 126.726 38.0179 126.746 38.1099C126.934 37.9911 127.115 37.9545 127.276 37.9221C127.569 37.8629 127.794 37.8177 127.872 37.3113C129.049 38.5445 130.062 39.9052 131.076 41.2673C131.511 41.8524 131.947 42.4375 132.396 43.0132C133.035 43.8323 133.834 44.5766 134.634 45.3216C135.628 46.2473 136.622 47.1733 137.309 48.2439C138.008 49.3337 137.476 50.7985 136.977 52.1721C136.726 52.8658 136.483 53.5359 136.411 54.1228C136.168 56.0936 136.683 58.349 138.029 59.8518C138.659 60.5543 139.429 61.0426 140.359 61.2314C140.854 61.3317 141.337 61.223 141.803 61.1178C142.208 61.0266 142.601 60.9381 142.98 60.9917C143.554 61.0729 143.662 61.4069 143.825 61.9119C143.854 62.0021 143.886 62.0979 143.921 62.1985C144.245 63.1096 144.657 63.9698 145.42 64.61C145.739 64.8774 146.067 65.0735 146.387 65.2651C146.922 65.5848 147.433 65.8906 147.84 66.4913C147.981 66.6989 148.107 66.9047 148.229 67.1057C148.602 67.7172 148.948 68.2853 149.611 68.7231C149.914 68.923 150.264 69.087 150.614 69.2514C151.624 69.725 152.639 70.2008 152.545 71.5469L153.151 71.0652C153.619 72.5708 154.264 74.0286 154.953 75.4444C155.275 76.1078 155.441 76.4603 155.424 77.1983C155.421 77.3574 155.39 77.5037 155.36 77.6455C155.298 77.9363 155.241 78.2065 155.435 78.5231C155.685 78.9323 156.164 79.0891 156.639 79.2447C157.038 79.3753 157.435 79.5052 157.692 79.7832C157.969 80.0841 157.975 80.4362 157.98 80.7817C157.985 81.1536 157.991 81.5172 158.337 81.7993C158.056 81.8857 157.277 82.5147 157.57 82.8967C157.824 83.2283 157.937 83.0851 158.05 82.9399C158.125 82.8445 158.201 82.748 158.318 82.7839C158.683 82.896 158.81 83.1935 158.932 83.4797C159.036 83.7246 159.137 83.9614 159.381 84.0673C159.491 84.1153 159.481 83.5947 159.476 83.4724C161.065 86.6048 162.796 89.6612 164.527 92.7173C166.779 96.6943 169.031 100.67 170.968 104.81C177.064 117.841 184.311 130.529 192.325 142.481C192.954 143.419 193.603 144.354 194.253 145.292C195.559 147.174 196.871 149.065 198.038 151C199.145 152.838 200.424 154.544 201.705 156.252C202.456 157.253 203.208 158.255 203.926 159.285C204.878 160.65 205.791 162.042 206.704 163.434ZM159.474 83.4693C159.473 83.4362 159.474 83.4421 159.476 83.4724C159.475 83.4714 159.475 83.4703 159.474 83.4693ZM29.7637 73.0068C29.7449 73.2464 29.7258 73.4916 29.8073 73.7695C29.8901 74.0537 30.127 74.2672 30.3617 74.4786C30.5296 74.6301 30.6964 74.7802 30.8047 74.9547C31.6764 73.6713 31.6461 70.9228 31.1143 69.5506C30.8632 68.9024 30.3882 68.0586 30.012 67.4895C29.9532 67.4007 29.8567 67.3038 29.7634 67.2102C29.6603 67.1067 29.5614 67.0075 29.5206 66.9267C29.4559 66.7978 29.4262 66.6226 29.3963 66.445C29.3642 66.2566 29.3322 66.0657 29.2566 65.9261C28.8338 65.1404 27.9085 64.9464 27.0953 65.0394C27.0078 65.0495 26.9194 65.0592 26.8295 65.069C26.0842 65.1505 25.2696 65.2396 24.6044 65.5632C24.3975 65.6638 24.2216 65.7871 24.0531 65.9052C23.6609 66.18 23.3102 66.4258 22.7098 66.2879C22.925 66.6588 22.7596 66.9305 22.5872 67.214C22.4876 67.378 22.3852 67.5459 22.3532 67.7395C22.2403 68.4173 22.459 69.0247 22.9066 69.5391C23.7362 70.4926 24.9321 70.5762 26.0978 70.6577C26.2347 70.6671 26.3712 70.6769 26.5067 70.6877C27.5957 70.7754 28.9355 70.9558 29.5757 71.9763C29.8146 72.3576 29.7895 72.677 29.7637 73.0068ZM34.751 69.9862C35.2811 70.8949 36.4756 73.321 36.3844 74.4574V77.3581C36.2872 78.3709 34.5758 80.1022 33.6922 80.9962C33.5923 81.0972 33.5031 81.1874 33.4279 81.2647C31.5876 83.159 29.5889 83.4014 26.8616 83.1597C24.5515 82.9549 21.5591 82.1849 19.9954 80.3484C18.4943 78.5865 18.5155 75.856 18.7377 73.6863C19.0477 70.656 20.3771 67.8956 22.1484 65.4451C23.1859 64.0099 26.0247 60.6682 28.192 61.3992C28.5117 61.5072 28.7565 61.7935 28.9752 62.0488C29.0153 62.0958 29.0546 62.1417 29.0933 62.1856C29.2702 62.4151 29.4454 62.6457 29.6195 62.8776C29.7275 63.1824 29.9218 63.2722 30.2019 63.1476C30.4561 63.4997 30.7451 63.8229 31.0339 64.1454C31.6082 64.7876 32.1807 65.4273 32.4715 66.2879C32.7477 67.1057 33.3213 67.9077 33.8779 68.6868C34.1934 69.1277 34.5034 69.5614 34.751 69.9862Z" fill="#EEA734"/>
<path fill-rule="evenodd" clip-rule="evenodd" d="M130.879 237.074C132.456 236.457 134.4 236.745 136.054 236.775C138.13 236.812 140.211 236.97 142.281 237.131C146.256 237.443 150.21 237.312 154.189 237.683C156.164 237.868 158.14 238.038 160.117 238.206C161.847 238.354 163.857 238.813 165.585 238.482C166.298 238.346 168.223 237.675 167.866 236.63C167.591 235.824 165.424 235.327 164.718 235.098C163.057 234.558 161.342 234.171 159.663 233.69C158.801 233.443 157.942 233.177 157.034 233.263C156.263 233.336 155.451 233.911 154.67 233.844C153.516 233.747 152.921 232.297 152.074 231.657C150.725 230.639 149.726 231.183 148.692 232.305C147.927 233.135 147.199 234.391 145.945 234.465C144.349 234.559 144.039 233.191 144.743 232.031C145.391 230.963 147.157 229.867 147.252 228.535C147.312 227.693 145.965 225.44 145.19 225.12C143.887 224.581 142.045 226.007 140.866 226.445C138.808 227.209 136.708 227.886 134.624 228.576C133.199 229.048 131.084 229.09 130.815 230.76C130.478 232.851 130.888 234.974 130.879 237.074ZM49.3165 204.93C49.7309 204.012 50.1659 203.49 49.3377 202.639C48.8745 202.162 48.2212 201.928 47.7653 201.433C47.0802 200.691 46.0068 198.66 47.4752 198.149C48.8787 197.66 50.0611 199.613 51.1905 200.043C52.624 200.587 53.5121 199.674 53.7173 198.304C53.9806 196.544 53.6908 194.705 53.9012 192.923C54.1066 191.176 54.7168 189.726 55.1849 188.054C55.5025 186.92 55.8908 185.778 54.4507 185.526C53.1301 185.296 51.5984 185.844 50.2593 185.918C48.1707 186.032 46.057 186.138 43.9858 186.451C41.6733 186.801 41.7154 189.166 41.1349 191.099C39.7271 195.786 37.8395 200.384 36.9605 205.216C36.5815 207.299 37.586 208.726 38.7555 210.364C40.2193 212.415 41.7423 214.461 43.4004 216.361C44.5075 217.63 45.755 218.812 47.3672 219.395C49.1935 220.056 49.8915 219.322 49.4704 217.522C48.9139 215.146 48.0745 212.85 48.1735 210.375C48.2097 209.474 48.4716 208.506 47.8217 207.751C47.371 207.228 46.5989 207.052 46.0107 206.734C45.0411 206.209 43.539 204.519 45.428 204.155C46.7111 203.908 48.0746 204.771 49.3165 204.93ZM92.9419 111.846C94.0947 113.133 95.3477 114.365 96.4406 115.702C97.0672 116.469 97.5112 117.39 98.1837 118.117C99.6566 119.709 101.124 117.945 102.428 116.914C107.558 112.859 112.385 108.464 117.272 104.124C119.601 102.056 122.078 100.148 124.369 98.041C126.691 95.9064 128.623 93.4075 130.798 91.133C131.842 90.0408 133.093 88.9573 133.737 87.5621C134.287 86.3724 134.409 85.0782 135.036 83.9018C136.121 81.8644 138.111 79.4992 137.655 77.0352C136.311 78.444 134.073 83.4922 131.728 81.1246C130.054 79.4348 131.764 76.937 131.689 74.9668C130.1 75.6411 130.513 78.375 128.819 78.8588C127.903 79.1207 127.119 78.2911 126.692 77.5639C125.953 76.3066 126.224 74.9909 126.56 73.657C126.788 72.748 128.248 69.7504 126.804 69.3805C125.554 69.0598 124.505 71.3601 124.091 72.1751C123.331 73.6699 122.743 75.2155 121.909 76.6779C120.471 79.199 118.814 81.6077 117.234 84.0421C113.981 89.0555 110.271 93.7614 106.455 98.3568C102.379 103.265 97.9671 107.893 92.9419 111.846ZM129.08 127.792C128.916 132.209 125.121 135.558 121.838 138.013C117.642 141.152 113.771 144.718 108.767 146.504C106.84 147.192 104.434 146.994 103.662 149.162C103.361 150.01 103.635 150.322 103.962 151.175C104.473 152.51 104.78 153.958 105.023 155.363C105.849 160.144 105.046 165.013 102.173 168.994C100.646 171.11 98.6946 172.909 96.6771 174.549C94.6644 176.185 92.7608 178.093 90.5419 179.447C85.8096 182.333 80.5524 183.991 75.0957 184.788C72.2576 185.204 69.408 185.573 66.5417 185.72C65.0553 185.796 63.5661 185.81 62.079 185.744C61.4145 185.715 58.9435 185.154 58.4632 185.534C58.0937 185.828 57.9289 187.602 57.8551 188.092C57.698 189.127 57.5744 190.148 57.3606 191.174C56.9311 193.234 56.3527 195.564 56.9855 197.643C57.1687 198.244 57.317 198.733 57.8736 198.935C58.2264 199.063 58.8515 198.838 59.2081 198.801C60.0151 198.718 60.7768 198.686 61.5882 198.772C64.2515 199.054 66.8667 199.734 69.5581 199.549C75.2963 199.154 81.04 198.75 86.7255 197.852C89.4912 197.415 92.1447 196.589 94.8643 195.951C97.4565 195.342 100.047 194.728 102.467 193.585C107.207 191.346 111.588 188.384 115.501 184.914C119.679 181.209 122.444 176.818 125.058 171.918C127.354 167.613 129.289 163.256 129.189 158.294C129.125 155.154 128.675 151.263 130.491 148.493C131.32 147.228 132.993 146.055 134.552 146.724C137.381 147.939 134.708 150.343 133.63 151.66C132.075 153.558 132.284 156.448 132.123 158.769C131.932 161.507 131.317 163.91 130.717 166.558C130.13 169.15 131.314 172.225 131.431 174.87C131.558 177.737 131.475 180.607 131.443 183.476C131.379 189.182 131.644 194.872 131.625 200.576C131.614 203.535 131.69 206.508 131.503 209.463C131.332 212.157 130.78 214.734 130.297 217.379C129.823 219.976 129.132 223.085 129.292 225.724C135.775 223.256 142.085 220.342 148.667 218.137C146.614 216.347 146.523 213.817 146.357 211.293C146.139 207.964 145.591 204.663 145.352 201.334C144.879 194.758 145.012 187.842 145.571 181.274C146.172 174.223 147.237 167.195 147.456 160.115C147.562 156.704 147.298 153.284 146.742 149.918C146.274 147.082 145.868 143.514 144.389 141.001C142.976 138.6 140.378 137.075 138.211 135.44C135.041 133.049 132.105 130.36 129.08 127.792ZM129.473 35.5667C130.284 36.6641 131.201 37.6769 132.172 38.6357C133.173 39.6251 133.6 39.4064 134.798 38.892C137.18 37.8681 137.134 36.684 135.804 34.6316C132.72 29.8707 131.55 24.2008 128.286 19.5374C125.07 14.9424 120.393 11.2299 115.482 8.58037C110.212 5.7371 104.502 4.83239 98.5619 4.91723C95.5264 4.9607 92.4717 5.17018 89.4553 5.51031C86.5208 5.84092 83.9108 6.80386 81.0703 7.53092C79.6403 7.89678 78.1657 8.20037 76.7754 8.70317C75.5557 9.14412 74.459 9.82517 73.2268 10.2372C70.5291 11.1386 67.8143 12.146 65.3802 13.6202C63.0005 15.0618 60.8565 16.5993 58.6951 18.369C56.4568 20.2019 54.5127 22.332 52.0922 23.9413C49.8887 25.4065 48.1362 27.3805 46.1382 29.0975C44.0506 30.8918 42.1253 33.0901 40.5592 35.3574C39.0278 37.5741 38.4452 40.4425 37.5201 42.9424C36.4433 45.8522 35.3751 48.9627 34.9694 52.0477C34.2136 57.7963 35.9101 64.5155 38.0673 69.8354C40.2011 75.0971 43.6591 79.4874 47.7851 83.3397C49.7964 85.2186 51.9912 86.9237 54.4504 88.1799C56.554 89.2547 59.297 91.1869 61.5865 89.8367C62.5136 89.2899 63.2662 88.6543 64.3379 88.4081C65.5094 88.1392 66.657 88.2493 67.6026 87.3904C68.4064 86.6604 68.7909 85.7793 69.8461 85.3387C71.0975 84.816 72.5773 84.7209 73.9171 84.7251C76.9258 84.7352 79.9363 85.4881 82.8078 86.3233C85.4394 87.0885 87.6415 88.2426 90.4371 87.5433C92.5145 87.0237 95.8465 85.6421 96.2943 83.2606C96.6945 81.1319 95.1499 78.3802 94.3722 76.4755C93.2971 73.8433 92.3233 71.2539 91.648 68.4865C91.1127 66.2938 90.2724 62.7856 91.7832 60.7813C93.2679 58.8122 96.7001 58.8359 98.8326 59.3311C100.23 59.6557 101.515 60.3094 102.913 60.6389C104.338 60.9746 105.812 61.1432 107.265 61.3079C112.3 61.8773 119.464 60.5898 119.196 54.1551C118.958 48.4201 115.797 42.6711 117.648 36.9291C118.402 34.5887 119.943 31.882 122.509 31.2641C124.543 30.7741 127.294 31.2878 129.089 32.3521C130.53 33.2064 131.957 34.9955 129.473 35.5667ZM28.3501 61.1829C23.2744 62.173 19.9174 67.5235 18.9871 72.2681C18.5654 74.4179 18.4167 76.9785 19.232 79.0587C20.1716 81.4569 22.8279 82.4578 25.1718 82.9607C27.851 83.5357 30.2252 83.3111 32.3493 81.4538C33.283 80.6367 34.074 79.6852 34.7451 78.6456C35.4312 77.5824 36.3855 76.8078 35.6955 75.6195C33.9852 72.6752 32.5259 69.7828 31.3996 66.5438C30.897 65.0985 30.4502 63.6863 30.1166 62.1977C29.8519 61.0157 29.7237 60.2944 28.3501 61.1829ZM72.8061 93.2999C71.824 94.2458 70.6956 94.9995 69.4279 95.508C68.0372 96.0656 67.6151 95.7977 67.6841 97.4064C67.7603 99.1826 67.7732 100.604 66.9635 102.257C66.5846 103.031 65.1845 104.075 65.4488 104.945C65.8285 106.195 69.7166 107.458 70.8509 107.895C73.5647 108.94 76.7308 108.961 79.2923 107.484C82.2676 105.769 82.5309 102.658 81.4102 99.6482C81.2907 99.3271 80.8558 98.7845 80.9627 98.4338C81.1591 97.7912 81.9674 97.8839 82.4313 98.1294C83.4385 98.6623 83.8593 100.283 84.0762 101.294C84.6554 103.996 83.5914 106.922 81.5694 108.784C80.5416 109.729 79.2565 110.361 77.9456 110.817C77.2017 111.076 76.4208 111.28 75.6351 111.359C75.0002 111.423 74.1985 111.223 73.5922 111.404C72.5237 111.722 72.476 113.04 72.2088 114.003C71.7317 115.725 71.5325 117.589 71.4698 119.371C71.3684 122.252 71.7115 125.923 73.3689 128.365C77.2358 134.065 84.7146 136.043 90.5538 138.976C93.6576 140.535 96.5357 142.493 99.2992 144.587C99.5723 144.794 99.9808 145.2 100.309 145.361C101.416 145.906 100.449 145.707 101.158 145.347C101.704 145.07 102.171 144.468 102.736 144.154C104.035 143.431 105.494 143.04 106.816 142.357C109.889 140.768 112.607 138.796 115.335 136.691C118.129 134.534 120.96 132.565 123.509 130.11C124.584 129.075 125.794 128.222 126.885 127.231C127.983 126.233 126.578 125.819 125.647 125.085C122.482 122.584 119.355 120.005 115.975 117.795C114.847 117.058 113.852 116.063 112.676 115.412C111.447 114.731 110.718 115.341 109.75 116.206C108.692 117.152 107.684 118.079 106.507 118.888C104.952 119.957 103.145 120.471 101.581 121.489C102.585 122.54 105.032 122.891 105.387 124.482C105.747 126.095 103.345 127.353 102.223 127.976C100.241 129.076 98.0552 129.743 95.8468 130.22C94.0093 130.617 91.2851 130.02 89.8126 131.407C89.3926 130.518 88.9991 130.055 89.69 129.205C90.3803 128.357 91.6108 128.211 92.5849 127.885C95.2154 127.003 97.8065 125.829 100.352 124.728C100.014 123.937 99.1697 123.396 98.5261 122.882C97.607 122.146 96.8349 121.332 96.0868 120.418C94.6595 118.674 93.3797 116.814 92.0203 115.019C91.4311 114.24 90.8933 113.462 89.8168 113.894C88.8664 114.274 87.9389 115.261 87.0258 115.772C84.9601 116.929 83.1533 118.038 80.8798 118.774C79.9638 119.07 76.2126 119.915 77.2104 117.622C77.5061 116.942 78.4945 116.662 79.1032 116.365C80.2282 115.815 81.3496 115.255 82.4334 114.627C84.6599 113.339 86.6235 111.674 88.7065 110.175C91.0044 108.521 93.3417 106.916 95.4992 105.079C93.3525 103.657 90.971 102.615 88.7511 101.315C86.5072 100 84.2469 98.8117 81.926 97.6439C80.0781 96.714 78.1998 95.7225 76.5149 94.521C75.8451 94.0428 73.5406 92.0569 72.8061 93.2999ZM140.306 47.0506C140.024 47.1217 139.744 47.2025 139.467 47.2923C141.349 50.1698 139.271 53.7319 139.86 56.8451C141.598 55.8177 141.825 51.8213 144.463 52.56C147.305 53.3561 145.891 56.8531 146.751 58.8533C148.094 57.6796 149.661 58.7767 150.215 60.1691C150.815 61.6778 149.983 63.0705 150.263 64.5636C150.552 66.1085 151.416 65.0947 151.894 64.1836C152.504 63.0221 153.037 61.4521 152.812 60.1234C152.539 58.5078 151.454 57.0053 150.782 55.5377C150.114 54.0795 149.482 52.5913 148.515 51.2975C146.685 48.8477 143.506 46.6467 140.306 47.0506ZM158.506 81.5551C157.277 78.4886 155.459 75.6804 154.297 72.5895C153.958 71.6857 153.768 70.2449 152.869 69.688C152.279 69.322 151.493 69.5418 150.842 69.345C150.193 69.1489 149.509 68.6815 149.043 68.1992C148.192 67.317 147.916 66.1064 146.911 65.3381C145.615 64.3466 144.614 63.9663 143.997 62.3095C143.513 61.0084 143.512 60.8175 142.057 61.108C140.468 61.4249 139.178 61.0366 138.082 59.7957C136.226 57.6946 136.021 54.7346 136.932 52.1985C137.357 51.0123 138.099 49.6324 137.483 48.3908C136.911 47.237 135.522 46.4088 134.642 45.4893C132.418 43.1653 130.677 40.4456 128.591 38.007C128.092 37.4237 127.581 36.8417 127.197 36.173C126.952 35.7481 126.808 35.0175 126.241 34.8973C125.266 34.6904 123.905 36.3764 123.415 36.9904C119.824 41.4845 122.393 47.6054 122.83 52.6718C123.053 55.2518 123.553 58.3448 122.409 60.7743C121.331 63.0635 118.602 64.2062 116.302 64.8436C113.2 65.7035 109.869 65.6655 106.712 65.1434C105.059 64.87 103.472 64.4034 101.907 63.812C100.306 63.2067 98.6407 62.1657 97.0086 63.2638C94.9023 64.6816 95.5532 67.526 96.0157 69.5989C96.7715 72.9851 98.0911 76.1436 99.2585 79.3969C100.239 82.1291 101.033 85.5568 98.9715 88.0016C96.9129 90.4434 93.4988 91.9716 90.3211 91.8448C83.7332 91.5822 77.7196 86.6702 70.9874 88.6794C72.2524 89.2021 73.5894 89.5097 74.8254 90.1083C76.3174 90.8307 77.6983 91.7909 79.1468 92.5947C81.927 94.1368 84.7171 95.657 87.4343 97.3096C89.8896 98.8023 92.2108 100.438 94.554 102.092C97.4739 104.154 99.0119 101.871 100.885 99.6437C104.974 94.7829 108.867 89.6354 112.582 84.4841C115.813 80.006 118.811 75.3301 121.147 70.3271C121.983 68.537 123.39 65.5004 125.836 65.8536C128.007 66.167 129.273 68.7867 130.396 70.3902C131.179 69.8291 131.851 69.0786 132.908 69.3875C133.785 69.6431 134.392 70.5431 134.78 71.3107C135.047 71.8383 135.228 73.6162 135.675 73.8837C135.992 74.0742 137.206 73.665 137.746 73.79C139.598 74.2177 140.189 76.5971 140.17 78.2482C140.144 80.5246 139.193 82.8019 138.414 84.9097C136.667 89.6347 133.674 93.3274 130.375 97.0609C127.026 100.85 123.521 104.284 119.744 107.646C118.812 108.476 117.889 109.315 116.98 110.171C116.235 110.872 115.055 111.601 114.472 112.425C113.393 113.95 116.28 114.642 117.354 115.2C121.977 117.6 126.237 120.762 130.308 123.985C134.507 127.31 138.728 130.647 142.762 134.17C146.709 137.616 150.436 141.289 154.592 144.494C158.862 147.786 163.335 150.826 167.723 153.959C172.114 157.094 176.388 160.394 180.774 163.534C185.061 166.602 189.663 169.233 194.172 171.957C196.53 173.382 198.901 174.787 201.271 176.194C203.187 177.332 205.267 179.1 207.539 179.244C209.585 179.373 211.527 180.126 212.75 177.901C213.679 176.212 213.294 173.888 212.481 172.246C211.489 170.243 209.936 168.402 208.689 166.548C207.254 164.416 205.923 162.223 204.508 160.081C203.15 158.026 201.642 156.13 200.127 154.194C198.592 152.231 197.427 150.019 196.059 147.941C193.134 143.498 190.127 139.135 187.355 134.593C180.996 124.176 175.301 113.421 169.859 102.505C169.38 101.544 158.193 81.7261 158.506 81.5551ZM149.553 145.603C152.97 157.415 150.999 169.427 150.299 181.444C149.944 187.52 149.89 193.634 149.733 199.719C149.657 202.676 149.662 205.636 149.785 208.593C149.847 210.08 149.956 211.562 150.061 213.046C150.155 214.359 149.803 215.81 149.968 217.077C150.181 218.699 153.401 219.017 152.412 221.099C151.748 222.496 149.423 222.709 148.178 223.298C148.732 223.939 149.598 224.899 150.521 224.959C151.353 225.013 151.996 224.292 152.741 224.019C153.403 223.777 154.314 223.542 154.732 224.315C155.17 225.124 154.253 226.023 153.891 226.65C155.123 226.889 155.976 226.153 157.088 226.22C158.258 226.291 158.311 227.443 159.08 228.109C159.959 228.87 161.494 229.034 162.578 229.355C163.839 229.727 165.106 230.19 166.254 230.837C168.307 231.993 170.071 234.179 170.83 236.415C171.616 238.734 170.388 240.74 168.559 242.162C167.878 242.692 166.901 243.308 165.997 243.022C164.964 242.695 164.803 241.855 163.544 241.917C162.414 241.974 161.341 242.425 160.205 242.483C158.534 242.568 156.866 242.264 155.194 242.328C148.446 242.587 141.698 242.645 134.962 241.996C133.219 241.828 131.511 241.691 129.793 241.636C128.457 241.593 128.345 240.597 128.118 239.346C127.572 236.325 128.781 233.351 128.182 230.415C128.222 230.609 127.276 230.105 127.162 230.009C126.468 229.425 126.236 228.594 126.029 227.731C125.478 225.434 125.484 223.093 125.654 220.749C126.041 215.431 127.031 210.161 126.95 204.815C126.909 202.12 126.99 199.431 126.991 196.737C126.992 194.263 127.216 191.82 127.237 189.363C127.282 183.975 127.85 178.648 128.008 173.266C126.886 174.357 126.291 175.878 125.579 177.239C124.703 178.913 123.726 180.57 122.655 182.127C120.446 185.344 117.482 187.962 114.41 190.335C108.55 194.864 102.183 198.371 95.0022 200.292C87.2291 202.371 79.3679 203.775 71.3545 204.563C69.5003 204.746 67.6256 204.845 65.7675 204.664C64.5507 204.546 62.5728 203.563 61.4165 204.062C60.1025 204.629 59.8382 205.992 58.1153 205.61C57.4577 205.464 56.9816 205.025 56.4059 204.728C55.5593 204.293 55.5255 204.594 54.7172 204.649C53.8158 204.711 53.2757 204.261 52.49 204.987C51.823 205.603 51.8878 206.035 52.4969 206.611C53.3533 207.422 54.7241 207.558 55.5812 208.405C56.4153 209.228 56.2659 210.24 54.9777 210.252C53.6814 210.265 52.5293 209.342 51.2626 209.222C51.5325 212.969 52.6603 217.156 51.41 220.832C50.8297 222.538 49.5854 223.637 47.7294 223.625C44.6235 223.605 41.8993 220.748 40.0287 218.522C38.9947 217.292 38.1564 215.91 37.1583 214.649C36.1375 213.36 35.0429 212.065 34.4585 210.506C33.8368 208.848 34.0182 207.184 34.3658 205.482C34.7959 203.375 35.1958 201.246 35.7157 199.16C36.724 195.113 38.752 191.419 39.7759 187.384C40.1632 185.858 40.1583 184.067 41.1359 182.758C42.1706 181.372 43.7807 181.283 45.3775 181.372C47.354 181.482 49.329 181.7 51.295 181.924C52.5366 182.065 55.257 182.96 56.2673 182.197C56.6152 181.935 56.6159 181.246 57.0227 181.009C57.4149 180.779 58.048 180.944 58.4768 180.976C60.5995 181.133 62.7407 181.325 64.8676 181.387C72.7734 181.618 81.1159 180.386 88.1744 176.713C91.4499 175.009 93.9452 172.326 96.5778 169.791C99.1665 167.3 101.423 164.618 102.119 161C102.755 157.697 102.514 153.748 101.458 150.551C100.429 147.437 96.7777 145.551 94.1201 144.015C90.4346 141.886 86.5221 140.121 82.5515 138.592C81.9211 138.35 81.1549 138.041 80.4618 138.165C79.6117 138.317 79.0409 139.054 78.2677 139.379C77.3486 139.765 76.2213 139.767 75.2513 139.993C74.311 140.212 73.3943 140.513 72.4366 140.657C69.4202 141.112 65.1814 140.749 62.6884 138.822C58.6136 135.673 61.0756 131.216 62.3847 127.383C61.0007 127.336 59.8483 127.66 58.5273 127.068C57.2111 126.477 56.182 125.433 55.5819 124.124C54.4904 121.742 55.1208 119.006 55.443 116.523C55.5885 115.4 55.7547 114.286 56.183 113.231C56.515 112.415 57.0596 111.636 57.2609 110.772C57.4824 109.821 57.1951 109.766 56.4018 109.311C55.1783 108.609 54.2978 107.803 53.5491 106.572C52.0825 104.16 52.0463 101.529 53.2478 98.9921C53.7343 97.9657 54.8948 96.5542 54.7628 95.3554C54.6493 94.3238 53.4818 93.5204 52.7943 92.8451C50.6713 90.7593 48.4141 88.8337 46.0598 87.0143C44.9596 86.1638 43.7476 85.392 42.7477 84.4259C42.0149 83.7182 41.2707 82.1785 40.2687 81.8062C39.2657 81.4339 38.5977 82.5539 37.8991 83.1544C36.81 84.0902 35.7662 85.167 34.5793 85.9782C32.4507 87.4333 29.8115 87.1609 27.4073 86.6963C24.8963 86.2105 22.5674 85.3555 20.4262 83.9446C19.5757 83.3839 18.5821 82.2454 17.5348 82.1541C16.4162 82.057 15.2007 83.169 14.4011 83.8366C12.3139 85.5798 11.6873 88.2872 10.4715 90.629C9.11394 93.2442 8.5372 95.9586 8.90672 98.8984C9.23897 101.543 10.2577 103.542 11.773 105.678C12.0865 106.12 12.8203 106.955 12.2839 107.443C11.6278 108.041 10.2834 106.842 9.84287 106.455C5.46682 102.606 2.97981 96.807 4.40041 91.0017C5.16278 87.8846 6.65443 85.0006 8.38674 82.3185C9.12334 81.1776 9.84183 80.037 11.1228 79.455C12.581 78.793 14.2332 78.8717 15.7907 78.7128C14.7135 73.4393 14.3763 67.7008 17.6867 63.1046C20.227 59.5777 25.4295 56.4916 29.5523 59.3517C29.3834 55.4639 28.8293 51.7718 29.8641 47.9436C30.3276 46.2284 30.9629 44.5591 31.7437 42.9623C32.5085 41.3978 33.5648 40.0709 34.1826 38.4424C36.6205 32.0181 41.2982 26.2796 46.2942 21.6689C51.3445 17.0082 56.3001 11.3223 62.6616 8.40651C69.2983 5.3641 76.0572 2.63012 83.2533 1.24776C90.722 -0.187161 98.399 -0.481695 105.923 0.876848C112.519 2.06787 118.623 6.07239 123.614 10.3896C129.309 15.3159 132.985 21.2548 135.894 28.1342C136.532 29.6454 137.148 31.1694 137.932 32.6137C138.801 34.2161 139.918 35.7063 140.557 37.4258C141.128 38.9592 141.224 40.6229 140.208 41.993C139.494 42.9563 138.029 43.1737 137.405 44.0548C137.09 44.4992 137.122 44.922 137.814 45.0543C138.53 45.1909 138.871 44.393 139.385 44.0729C140.665 43.2761 142.472 43.9552 143.766 44.4076C146.835 45.4806 149.238 47.408 151.075 50.0792C152.832 52.6359 154 55.5405 155.16 58.3995C155.893 60.2032 156.589 61.995 156.993 63.906C157.144 64.6249 157.356 66.5738 156.22 65.7198C155.759 65.3736 155.101 68.001 155.225 68.4193C155.657 69.8744 157.198 71.2386 158.104 72.4168C160.236 75.1862 161.664 78.2887 163.168 81.421C166.426 88.204 170.053 94.7888 173.539 101.454C180.636 115.028 188.392 128.081 196.528 141.055C200.559 147.484 204.715 153.802 209.023 160.047C210.925 162.803 212.832 165.561 214.692 168.345C216.273 170.711 217.833 173.345 217.426 176.298C217.053 179.002 215.447 181.173 212.85 182.057C211.458 182.531 209.806 183.077 208.316 182.932C206.687 182.773 205.25 181.683 203.892 180.865C197.653 177.105 191.412 173.348 185.169 169.595C178.186 165.397 171.8 160.413 165.139 155.746C161.749 153.371 158.253 151.231 154.722 149.081C153.926 148.597 150.318 145.129 149.553 145.603Z" fill="#3A3A3A"/>
<path fill-rule="evenodd" clip-rule="evenodd" d="M89.0938 157.553C87.3883 160.064 85.5947 162.424 83.1941 164.329C80.6649 166.336 78.0201 167.962 75.1963 169.52C70.2164 172.266 63.541 174.699 57.7569 173.454C56.112 173.1 53.4805 171.66 54.9105 169.605C55.6293 168.573 57.1711 168.842 58.2626 168.899C60.021 168.991 61.5587 169.091 63.2436 168.499C66.3394 167.412 69.4564 166.386 72.4795 165.106C75.4074 163.866 77.9752 162.165 80.6614 160.495C83.1808 158.928 85.1026 157.052 87.3159 155.158C87.9219 154.639 88.9639 153.732 89.5372 154.74C89.9516 155.469 89.3209 156.84 89.0938 157.553Z" fill="#3A3A3A"/>
<path fill-rule="evenodd" clip-rule="evenodd" d="M158.01 36.9409C157.82 38.0286 157.304 40.1928 155.774 39.8971C153.822 39.5202 154.783 35.6983 154.754 34.401C154.624 28.7478 152.781 23.312 150.052 18.4105C148.694 15.9739 147.023 13.7205 145.789 11.214C145.55 10.727 144.823 9.51914 145.351 8.99081C145.985 8.35632 147.201 9.31379 147.649 9.76658C149.377 11.5175 150.753 14.1425 152.087 16.2028C153.869 18.9533 155.442 21.8586 156.572 24.9429C157.936 28.6684 158.702 32.9894 158.01 36.9409Z" fill="#3A3A3A"/>
<path fill-rule="evenodd" clip-rule="evenodd" d="M161.663 18.8628C161.845 19.8432 162.737 22.5106 161.146 22.7471C159.343 23.0153 158.782 18.571 158.281 17.3935C158.017 16.7727 156.61 14.0389 157.344 13.4438C158.871 12.2049 161.301 18.0741 161.663 18.8628Z" fill="#3A3A3A"/>
<path fill-rule="evenodd" clip-rule="evenodd" d="M76.7708 151.147C75.0587 152.707 73.0711 152.616 70.9101 152.467C69.8127 152.392 67.2713 151.742 69.0374 150.381C69.96 149.67 77.1981 149.181 76.7708 151.147Z" fill="#3A3A3A"/>
<path fill-rule="evenodd" clip-rule="evenodd" d="M210.177 179.709C210.299 179.467 211.326 178.305 211.548 178.775C211.757 179.218 210.449 179.696 210.177 179.709Z" fill="#3A3A3A"/>
<path fill-rule="evenodd" clip-rule="evenodd" d="M74.0028 93.4738C73.7921 93.9081 72.9127 93.5289 72.6097 93.5947C73.0213 92.7132 73.5107 92.902 74.0028 93.4738Z" fill="#3A3A3A"/>
<path fill-rule="evenodd" clip-rule="evenodd" d="M140.175 47.3652C140.083 47.7135 139.992 48.0618 139.901 48.4101C139.76 48.1492 139.619 47.8883 139.478 47.6271C139.71 47.5401 139.943 47.4527 140.175 47.3652Z" fill="#3A3A3A"/>
<path fill-rule="evenodd" clip-rule="evenodd" d="M141.856 113.166C144.053 113.388 146.258 113.5 148.464 113.568C150.326 113.625 151.091 113.273 151.329 111.337C151.61 109.043 151.707 106.728 151.988 104.432C152.116 103.39 153.128 101.306 151.909 100.748C150.888 100.28 149.296 100.95 148.226 101.029C147.035 101.117 145.237 100.753 144.184 101.46C143.058 102.215 143.303 104.859 143.111 106.1C142.745 108.465 142.304 110.815 141.856 113.166ZM140.808 102.022C138.816 102.173 136.818 102.292 134.832 102.504C133.949 102.598 132.16 103.035 131.415 102.392C129.666 100.883 136.201 100.353 136.943 100.234C138.193 100.034 140.331 100.3 141.132 99.1206C141.924 97.9538 141.724 95.9934 141.929 94.639C142.237 92.6005 142.59 90.5649 142.795 88.5132C142.864 87.8236 142.766 85.5456 143.494 85.2071C145.168 84.429 144.642 92.4466 144.614 93.0484C144.567 94.0831 144.515 95.1227 144.371 96.1487C144.29 96.7272 144.004 97.5095 144.18 98.0904C144.685 99.7562 147.552 98.7956 148.858 98.6626C150.322 98.5135 152.581 99.0805 153.066 97.2747C153.675 95.0054 153.586 92.4281 153.812 90.0933C153.874 89.4476 154.037 84.6254 155.227 84.9991C156.556 85.4167 156.037 89.4462 156.025 90.4837C156.012 91.6546 156.016 92.8262 155.937 93.995C155.866 95.0451 155.57 96.3319 155.789 97.3722C156.173 99.1961 158.335 98.2262 158.963 99.6771C159.559 101.056 156.308 99.9749 155.701 100.449C154.795 101.156 155.013 104.111 154.883 105.146C154.599 107.419 154.053 109.779 153.876 112.046C153.736 113.835 155.174 113.597 156.637 113.468C157.893 113.357 159.271 113.058 160.529 113.226C161.54 113.36 162.952 114.291 161.481 114.911C159.18 115.88 154.496 113.9 153.34 116.843C153.122 117.399 152.107 123.838 150.832 120.659C150.3 119.33 151.604 117.246 150.213 116.228C149.731 115.875 149.012 115.937 148.452 115.898C147.074 115.802 145.687 115.769 144.307 115.741C142.93 115.712 141.693 115.435 141.161 116.943C140.747 118.118 140.793 119.433 140.462 120.635C140.214 121.537 139.399 123.114 138.553 121.64C137.998 120.671 138.423 118.979 138.533 117.926C138.588 117.399 138.902 116.307 138.502 115.864C138.072 115.389 136.923 115.646 136.38 115.689C134.812 115.814 131.891 116.568 130.69 115.146C129.686 113.956 131.774 113.933 132.595 113.853C133.44 113.77 134.286 113.693 135.131 113.605C136.061 113.506 137.293 113.637 138.169 113.346C139.639 112.856 139.534 110.857 139.631 109.56C139.82 107.027 140.389 104.525 140.808 102.022Z" fill="#3A3A3A"/>
<path fill-rule="evenodd" clip-rule="evenodd" d="M166.643 107.432C166.525 108.895 166.366 110.534 165.894 111.924C165.537 112.975 164.815 113.294 164.569 111.956C164.413 111.108 165.45 106.331 166.643 107.432Z" fill="#3A3A3A"/>
<path fill-rule="evenodd" clip-rule="evenodd" d="M73.8036 97.8028C73.2171 97.3817 70.4396 95.167 72.447 95.0796C73.472 95.0347 75.6804 96.7207 75.7438 97.6561C75.7598 97.8923 75.2548 98.0145 75.2823 98.243C75.3346 98.678 75.9785 98.8838 76.1861 99.2296C76.6434 99.9924 76.4536 101.499 75.8629 102.224C74.5158 103.878 73.0199 101.079 74.0627 100.529C73.8304 100.652 70.7119 99.0666 70.5949 98.7086C69.9534 96.7468 73.6458 98.5951 73.8036 97.8028Z" fill="#3A3A3A"/>
<path fill-rule="evenodd" clip-rule="evenodd" d="M78.6989 105.522C77.9867 105.545 76.556 105.495 76.0224 104.987C75.0305 104.041 76.9652 103.916 77.5311 103.475C78.3245 102.859 78.4802 100.852 79.7256 102.093C80.9609 103.325 79.8747 104.758 78.6989 105.522Z" fill="#3A3A3A"/>
<path fill-rule="evenodd" clip-rule="evenodd" d="M68.4304 100.312C69.7183 100.123 72.5835 102.899 71.1932 103.084C70.2731 103.206 68.6313 101.054 68.4304 100.312Z" fill="#3A3A3A"/>
</g>
<defs>
<filter id="filter0_d_58_4363" x="0" y="0" width="221.491" height="251.095" filterUnits="userSpaceOnUse" color-interpolation-filters="sRGB">
<feFlood flood-opacity="0" result="BackgroundImageFix"/>
<feColorMatrix in="SourceAlpha" type="matrix" values="0 0 0 0 0 0 0 0 0 0 0 0 0 0 0 0 0 0 127 0" result="hardAlpha"/>
<feOffset dy="4"/>
<feGaussianBlur stdDeviation="2"/>
<feComposite in2="hardAlpha" operator="out"/>
<feColorMatrix type="matrix" values="0 0 0 0 0 0 0 0 0 0 0 0 0 0 0 0 0 0 0.25 0"/>
<feBlend mode="normal" in2="BackgroundImageFix" result="effect1_dropShadow_58_4363"/>
<feBlend mode="normal" in="SourceGraphic" in2="effect1_dropShadow_58_4363" result="shape"/>
</filter>
</defs>
</svg>
