<svg width="375" height="384" viewBox="0 0 375 384" fill="none" xmlns="http://www.w3.org/2000/svg">
<path fill-rule="evenodd" clip-rule="evenodd" d="M310.563 319.234C313.217 318.473 314.752 315.704 313.991 313.05C313.23 310.395 310.461 308.861 307.806 309.622C305.152 310.383 303.617 313.152 304.378 315.806C305.139 318.461 307.908 319.996 310.563 319.234Z" fill="#F8B64C"/>
<path fill-rule="evenodd" clip-rule="evenodd" d="M116.529 271.217C119.184 270.455 120.718 267.687 119.957 265.032C119.196 262.378 116.427 260.843 113.773 261.604C111.118 262.365 109.584 265.134 110.345 267.788C111.106 270.443 113.875 271.978 116.529 271.217Z" fill="#F8B64C"/>
<path fill-rule="evenodd" clip-rule="evenodd" d="M72.8927 173.457C75.5472 172.696 77.082 169.927 76.3208 167.273C75.5597 164.618 72.7908 163.084 70.1363 163.845C67.4819 164.606 65.9471 167.375 66.7082 170.029C67.4694 172.684 70.2383 174.218 72.8927 173.457Z" fill="#F8B64C"/>
<path fill-rule="evenodd" clip-rule="evenodd" d="M263.577 58.4421C266.231 57.681 267.766 54.9121 267.005 52.2576C266.244 49.6032 263.475 48.0684 260.821 48.8295C258.166 49.5907 256.631 52.3596 257.393 55.014C258.154 57.6685 260.923 59.2033 263.577 58.4421Z" fill="#F8B64C"/>
<path fill-rule="evenodd" clip-rule="evenodd" d="M69.7623 131.703L77.8022 136.159L73.3456 144.199L65.3058 139.743L69.7623 131.703Z" fill="#FFD841"/>
<path fill-rule="evenodd" clip-rule="evenodd" d="M300.734 59.2309L308.774 63.6874L304.317 71.7273L296.277 67.2707L300.734 59.2309Z" fill="#FFD841"/>
<path fill-rule="evenodd" clip-rule="evenodd" d="M306.272 249.058L314.312 253.515L309.855 261.554L301.815 257.098L306.272 249.058Z" fill="#FFD841"/>
<path fill-rule="evenodd" clip-rule="evenodd" d="M137.903 285.894L145.943 290.35L141.486 298.39L133.446 293.934L137.903 285.894Z" fill="#FFD841"/>
<path fill-rule="evenodd" clip-rule="evenodd" d="M170.146 203.19C169.453 203.59 169.16 204.683 169.56 205.375L174.26 213.516C174.86 214.555 174.394 215.748 173.528 216.248C172.662 216.748 171.296 216.382 170.796 215.516L166.096 207.375C165.423 206.609 164.604 206.39 163.738 206.89L163.564 206.99C162.872 207.39 162.579 208.483 162.979 209.175L167.679 217.316C168.279 218.355 167.813 219.548 166.947 220.048C166.081 220.548 164.715 220.182 164.215 219.316L159.515 211.175C159.115 210.483 158.022 210.19 157.329 210.59C156.636 210.99 156.343 212.083 156.743 212.775L161.543 221.089C163.443 224.38 167.322 226.298 170.966 225.81C173.027 231.78 180.509 251.939 187.513 253.67C188.879 254.036 191.996 252.236 192.362 250.87C194.366 243.939 180.648 227.38 176.509 222.61C178.853 219.871 179.232 215.727 177.332 212.436L172.332 203.775C171.832 202.909 170.839 202.79 170.146 203.19Z" fill="#DCDCDC"/>
<path fill-rule="evenodd" clip-rule="evenodd" d="M174.881 235.79C178.215 243.565 182.868 252.425 187.513 253.67C188.879 254.036 191.996 252.236 192.362 250.87C193.607 246.225 188.26 237.765 183.194 230.99L174.881 235.79V235.79Z" fill="#F8B64C"/>
<path fill-rule="evenodd" clip-rule="evenodd" d="M229.688 165.119C225.357 167.619 225.493 175.854 227.893 180.011L228.793 181.57C230.693 184.861 234.472 186.605 238.189 185.844C239.923 190.848 247.686 212.693 255.063 214.67C256.429 215.036 259.546 213.236 259.912 211.87C261.889 204.493 246.852 186.848 243.386 182.844C245.73 180.105 246.282 175.861 244.382 172.57L243.482 171.011C241.082 166.854 234.018 162.619 229.688 165.119Z" fill="#DCDCDC"/>
<path fill-rule="evenodd" clip-rule="evenodd" d="M242.431 196.79C245.765 204.565 250.418 213.425 255.063 214.67C256.429 215.036 259.546 213.236 259.912 211.87C261.157 207.225 255.81 198.765 250.744 191.99L242.431 196.79V196.79Z" fill="#F8B64C"/>
<path d="M224.013 233.289C237.405 225.557 241.993 208.433 234.261 195.04C226.529 181.648 209.405 177.06 196.013 184.792C182.62 192.524 178.032 209.648 185.764 223.04C193.496 236.433 210.62 241.021 224.013 233.289Z" fill="#FFD600"/>
<path d="M220.513 227.227C230.557 221.428 233.998 208.585 228.199 198.54C222.4 188.496 209.557 185.055 199.513 190.854C189.468 196.653 186.027 209.496 191.826 219.54C197.625 229.585 210.468 233.026 220.513 227.227Z" fill="white"/>
<path d="M256.688 211.884C257.548 211.387 257.53 209.743 256.646 208.213C255.763 206.682 254.348 205.844 253.488 206.341C252.627 206.838 252.645 208.482 253.529 210.013C254.412 211.543 255.827 212.381 256.688 211.884Z" fill="white"/>
<path d="M189.138 250.884C189.998 250.387 189.98 248.743 189.096 247.213C188.213 245.682 186.798 244.844 185.938 245.341C185.077 245.838 185.095 247.482 185.979 249.013C186.862 250.543 188.277 251.381 189.138 250.884Z" fill="white"/>
<path fill-rule="evenodd" clip-rule="evenodd" d="M188.5 379.264C271.067 379.264 338 311.807 338 228.595C338 145.382 271.067 77.9255 188.5 77.9255C105.933 77.9255 39 145.382 39 228.595C39 311.807 105.933 379.264 188.5 379.264Z" fill="#F8B64C"/>
<mask id="mask0_4_121" style="mask-type:luminance" maskUnits="userSpaceOnUse" x="39" y="77" width="299" height="303">
<path fill-rule="evenodd" clip-rule="evenodd" d="M188.5 379.264C271.067 379.264 338 311.807 338 228.595C338 145.382 271.067 77.9255 188.5 77.9255C105.933 77.9255 39 145.382 39 228.595C39 311.807 105.933 379.264 188.5 379.264Z" fill="white"/>
</mask>
<g mask="url(#mask0_4_121)">
<path fill-rule="evenodd" clip-rule="evenodd" d="M236.866 43.7419C370.641 117.525 267.192 165.637 350.045 239.288C396.736 280.793 327.737 360.573 246.406 359.034C217.435 358.487 187.618 303.883 159.906 294.534C127.366 283.556 98.0145 312.223 81.2264 273.74C10.0054 110.484 152.647 166.02 159.953 93.6019C167.26 21.1835 218.094 34.1004 236.866 43.7419Z" fill="#FBFBFB"/>
<path fill-rule="evenodd" clip-rule="evenodd" d="M310.563 321.486C313.217 320.718 314.752 317.928 313.991 315.253C313.23 312.577 310.461 311.031 307.806 311.798C305.152 312.565 303.617 315.355 304.378 318.031C305.139 320.706 307.908 322.253 310.563 321.486Z" fill="#22A45D"/>
<path fill-rule="evenodd" clip-rule="evenodd" d="M114.542 273.338C117.197 272.571 118.731 269.78 117.97 267.105C117.209 264.43 114.44 262.883 111.786 263.65C109.131 264.417 107.596 267.208 108.358 269.883C109.119 272.558 111.888 274.105 114.542 273.338Z" fill="#22A45D"/>
<path fill-rule="evenodd" clip-rule="evenodd" d="M70.9056 174.814C73.56 174.047 75.0948 171.256 74.3337 168.581C73.5725 165.906 70.8037 164.359 68.1492 165.126C65.4948 165.893 63.9599 168.684 64.7211 171.359C65.4822 174.034 68.2511 175.581 70.9056 174.814Z" fill="#22A45D"/>
<path fill-rule="evenodd" clip-rule="evenodd" d="M304.285 251.006L312.324 255.497L307.868 263.6L299.828 259.109L304.285 251.006Z" fill="#FFD841"/>
<path fill-rule="evenodd" clip-rule="evenodd" d="M135.916 288.13L143.955 292.621L139.499 300.724L131.459 296.232L135.916 288.13Z" fill="#FFD841"/>
<path fill-rule="evenodd" clip-rule="evenodd" d="M67.7752 132.733L75.815 137.224L71.3584 145.327L63.3186 140.835L67.7752 132.733Z" fill="#FFD841"/>
<path fill-rule="evenodd" clip-rule="evenodd" d="M168.159 204.779C167.466 205.182 167.173 206.283 167.573 206.982L172.273 215.186C172.873 216.233 172.407 217.435 171.541 217.939C170.675 218.443 169.309 218.074 168.809 217.202L164.109 208.997C163.436 208.225 162.616 208.004 161.75 208.508L161.577 208.609C160.884 209.012 160.592 210.113 160.992 210.811L165.692 219.016C166.292 220.063 165.826 221.265 164.96 221.769C164.093 222.273 162.727 221.904 162.227 221.031L157.527 212.827C157.127 212.129 156.035 211.834 155.342 212.237C154.649 212.64 154.356 213.741 154.756 214.44L159.556 222.818C161.456 226.135 165.335 228.068 168.979 227.576C171.04 233.592 178.522 253.91 185.526 255.653C186.892 256.022 190.009 254.208 190.375 252.832C192.379 245.847 178.661 229.158 174.522 224.351C176.866 221.591 177.245 217.414 175.345 214.097L170.345 205.369C169.845 204.496 168.852 204.376 168.159 204.779Z" fill="#DCDCDC"/>
<path fill-rule="evenodd" clip-rule="evenodd" d="M172.893 237.634C176.227 245.47 180.881 254.399 185.526 255.653C186.892 256.022 190.009 254.208 190.375 252.832C191.62 248.151 186.273 239.624 181.207 232.797L172.893 237.634V237.634Z" fill="#22A45D"/>
<path fill-rule="evenodd" clip-rule="evenodd" d="M227.7 166.41C223.37 168.929 223.506 177.229 225.906 181.419L226.806 182.99C228.706 186.306 232.485 188.064 236.202 187.298C237.936 192.34 245.699 214.356 253.076 216.348C254.442 216.717 257.559 214.903 257.925 213.527C259.902 206.092 244.864 188.309 241.398 184.274C243.743 181.514 244.295 177.236 242.395 173.919L241.495 172.348C239.095 168.159 232.031 163.89 227.7 166.41Z" fill="#DCDCDC"/>
<path fill-rule="evenodd" clip-rule="evenodd" d="M240.443 198.329C243.777 206.165 248.431 215.094 253.076 216.348C254.442 216.717 257.559 214.903 257.925 213.527C259.17 208.846 253.823 200.319 248.757 193.492L240.443 198.329V198.329Z" fill="#22A45D"/>
<path d="M222.025 235.114C235.418 227.321 240.006 210.063 232.274 196.566C224.542 183.069 207.418 178.444 194.025 186.237C180.633 194.029 176.045 211.288 183.777 224.785C191.509 238.282 208.633 242.906 222.025 235.114Z" fill="#FFD600"/>
<path d="M218.525 229.004C228.57 223.16 232.011 210.216 226.212 200.093C220.413 189.97 207.57 186.502 197.525 192.347C187.481 198.191 184.04 211.135 189.839 221.257C195.638 231.38 208.481 234.848 218.525 229.004Z" fill="white"/>
<path d="M254.7 213.541C255.561 213.04 255.543 211.384 254.659 209.841C253.776 208.298 252.361 207.454 251.5 207.955C250.639 208.456 250.658 210.113 251.542 211.655C252.425 213.198 253.839 214.042 254.7 213.541Z" fill="white"/>
<path d="M187.15 252.846C188.011 252.345 187.993 250.688 187.109 249.146C186.226 247.603 184.811 246.759 183.95 247.26C183.089 247.761 183.108 249.418 183.992 250.96C184.875 252.503 186.289 253.347 187.15 252.846Z" fill="white"/>
</g>
</svg>
