<svg width="64" height="62" viewBox="0 0 64 62" fill="none" xmlns="http://www.w3.org/2000/svg">
<path d="M61.9638 46.2863C55.898 55.6457 44.5781 61.9412 31.6139 61.9412C18.2082 61.9412 6.56063 55.2099 0.662622 45.3199C-0.343308 43.8845 0.141393 43.2111 0.141393 43.2111C0.584058 42.2806 2.62436 42.3578 2.62436 42.3578H60.453C60.453 42.3578 62.3211 42.3544 62.6662 43.1529C62.6662 43.1529 63.558 44.3956 61.9638 46.2863Z" fill="#F8AF0C"/>
<path d="M38.767 38.8304C30.05 40.9047 20.3684 38.8842 13.5312 32.7677C6.4611 26.4432 4.28662 17.3978 7.00669 9.39928C7.32241 8.16766 7.97504 8.04125 7.97504 8.04125C8.75709 7.7592 9.7877 8.76262 9.7877 8.76262L39.573 35.4077L40.2862 36.0456C40.2862 36.0456 41.2735 36.9252 40.9847 37.5092C40.9847 37.5092 40.7226 38.5853 38.767 38.8304Z" fill="#22A45D"/>
<path d="M38.8747 31.839C33.0071 28.7958 29.0605 23.1167 29.0605 16.6128C29.0605 9.88724 33.2804 4.04376 39.4806 1.08478C40.3805 0.580006 40.8027 0.823254 40.8027 0.823254C41.3861 1.04522 41.3376 2.06895 41.3376 2.06895V31.0809C41.3376 31.0809 41.3396 32.0183 40.8391 32.1913C40.8391 32.1913 40.0602 32.6388 38.8747 31.839Z" fill="#FF7058"/>
<path d="M43.4761 33.6208C42.1526 29.17 43.4418 24.2267 47.344 20.7357C51.3795 17.1259 57.1507 16.0156 62.254 17.4046C63.0397 17.5658 63.1204 17.8989 63.1204 17.8989C63.3002 18.2982 62.6601 18.8245 62.6601 18.8245L45.6598 34.0323L45.2529 34.3964C45.2529 34.3964 44.6915 34.9005 44.3191 34.7531C44.3191 34.7531 43.6324 34.6192 43.4761 33.6208Z" fill="#FFD15C"/>
</svg>
